<?xml version="1.0" encoding="UTF-8"?>
<svg xmlns="http://www.w3.org/2000/svg" xmlns:xlink="http://www.w3.org/1999/xlink" width="1200px" height="636px" viewBox="0 0 1198 636" version="1.1">
<g id="surface1">
<path style=" stroke:none;fill-rule:nonzero;fill:rgb(0%,0%,0%);fill-opacity:1;" d="M 148.152344 23.171875 C 142.960938 32.757812 143.359375 33.160156 166.921875 32.757812 C 174.109375 32.757812 179.699219 34.757812 179.699219 37.152344 C 179.699219 39.949219 181.695312 38.75 184.09375 34.757812 C 188.882812 26.765625 186.488281 15.980469 179.699219 15.980469 C 177.703125 15.980469 175.707031 19.175781 175.308594 22.769531 C 175.308594 29.164062 174.90625 29.164062 172.113281 22.769531 C 169.714844 15.582031 168.917969 15.582031 163.726562 21.972656 C 158.535156 28.363281 158.136719 28.363281 155.738281 21.574219 C 153.34375 14.78125 152.546875 14.78125 148.152344 23.171875 Z M 148.152344 23.171875 "/>
<path style=" stroke:none;fill-rule:nonzero;fill:rgb(0%,0%,0%);fill-opacity:1;" d="M 200.464844 25.566406 C 201.265625 31.558594 203.660156 35.953125 205.65625 35.953125 C 211.648438 35.953125 210.449219 18.777344 204.457031 16.777344 C 200.464844 15.582031 199.265625 18.375 200.464844 25.566406 Z M 200.464844 25.566406 "/>
<path style=" stroke:none;fill-rule:nonzero;fill:rgb(0%,0%,0%);fill-opacity:1;" d="M 946.820312 34.757812 L 946.421875 55.929688 L 931.644531 56.328125 C 923.257812 56.328125 762.726562 56.730469 575.039062 57.128906 L 233.609375 57.527344 L 552.277344 58.726562 L 870.546875 59.925781 L 870.546875 115.855469 L 795.871094 117.054688 L 720.796875 117.851562 L 795.871094 119.050781 L 870.546875 119.847656 L 870.546875 271.660156 L 926.453125 271.660156 L 926.453125 59.925781 L 946.421875 59.925781 L 947.617188 138.625 L 948.417969 217.726562 L 949.613281 138.625 L 950.414062 59.925781 L 980.363281 59.925781 C 996.734375 59.925781 1010.3125 61.523438 1010.3125 63.121094 C 1010.3125 65.117188 1005.921875 77.101562 1000.730469 90.285156 C 995.539062 103.070312 982.757812 137.027344 972.777344 165.792969 C 962.394531 194.15625 952.410156 221.320312 950.414062 225.714844 C 948.816406 230.109375 944.421875 242.09375 940.828125 252.480469 L 934.839844 271.660156 L 989.148438 271.660156 L 994.339844 253.679688 L 999.53125 235.703125 L 1068.617188 235.703125 L 1074.605469 252.480469 L 1080.996094 269.660156 L 1108.550781 272.058594 C 1123.722656 273.257812 1136.503906 273.65625 1137.300781 273.65625 C 1138.5 272.855469 1078.597656 114.65625 1066.621094 86.691406 C 1061.828125 75.90625 1058.234375 65.519531 1058.234375 63.519531 C 1058.234375 61.523438 1074.207031 59.925781 1094.171875 59.925781 L 1130.113281 59.925781 L 1131.3125 148.613281 L 1132.109375 237.699219 L 1133.308594 149.011719 C 1134.105469 68.714844 1134.90625 60.324219 1141.292969 58.726562 C 1147.285156 57.128906 1147.285156 56.730469 1140.496094 56.328125 C 1134.105469 55.929688 1133.308594 53.53125 1134.90625 37.953125 C 1136.101562 27.964844 1135.703125 19.976562 1133.707031 19.976562 C 1131.710938 19.976562 1130.113281 21.574219 1130.113281 23.96875 C 1130.113281 25.96875 1119.730469 28.363281 1107.351562 28.765625 L 1084.191406 29.164062 L 1106.152344 31.558594 C 1126.121094 33.558594 1128.117188 34.757812 1129.316406 44.34375 L 1130.511719 54.730469 L 1083.789062 56.730469 C 1058.234375 57.925781 1017.902344 57.925781 993.941406 56.730469 L 950.414062 54.730469 L 950.414062 43.546875 C 950.414062 32.757812 951.613281 32.359375 971.578125 30.761719 L 992.34375 29.5625 L 971.578125 28.765625 C 955.605469 27.964844 950.414062 26.367188 949.214844 20.773438 C 948.015625 17.179688 947.21875 23.570312 946.820312 34.757812 Z M 909.679688 80.699219 C 909.679688 85.890625 910.082031 106.664062 910.480469 127.441406 C 910.480469 147.8125 910.082031 165.792969 908.882812 166.988281 C 907.683594 168.1875 908.484375 171.382812 910.878906 174.179688 C 913.675781 177.375 913.675781 179.773438 910.480469 181.769531 C 908.484375 182.96875 906.488281 186.964844 906.488281 190.160156 C 906.488281 193.757812 908.484375 194.953125 911.277344 193.355469 C 914.074219 191.359375 914.472656 192.160156 912.476562 195.753906 C 910.878906 198.550781 909.679688 212.53125 910.082031 226.515625 C 910.480469 243.292969 909.28125 251.683594 906.085938 251.683594 C 903.691406 251.683594 902.894531 254.480469 904.089844 257.675781 C 906.085938 263.269531 905.289062 263.269531 898.101562 258.074219 C 889.316406 252.082031 874.140625 232.507812 881.726562 237.300781 C 884.921875 239.300781 886.519531 236.503906 886.519531 229.710938 C 886.519531 222.519531 884.921875 220.125 881.726562 222.121094 C 877.734375 224.519531 877.734375 223.71875 880.929688 219.324219 C 886.917969 211.734375 886.917969 163.394531 881.328125 156.203125 C 877.335938 151.410156 877.734375 151.011719 883.726562 153.007812 C 888.515625 155.003906 890.113281 154.207031 888.117188 151.011719 C 886.519531 148.613281 885.722656 137.027344 886.121094 125.042969 C 886.519531 109.863281 885.320312 104.269531 882.128906 105.867188 C 879.332031 107.863281 879.730469 105.46875 882.925781 99.476562 C 885.722656 94.28125 887.71875 86.691406 887.320312 83.09375 C 886.519531 78.699219 889.714844 75.90625 897.300781 74.707031 C 903.292969 73.90625 908.882812 72.707031 908.882812 72.308594 C 909.28125 72.308594 909.679688 75.90625 909.679688 80.699219 Z M 1047.851562 77.101562 C 1049.046875 75.90625 1050.246094 79.101562 1050.246094 84.292969 C 1050.246094 89.886719 1051.84375 95.878906 1053.839844 97.875 C 1055.4375 100.273438 1060.230469 110.660156 1064.222656 121.847656 C 1068.214844 132.632812 1073.007812 143.820312 1075.003906 146.214844 C 1076.601562 148.613281 1077.003906 151.808594 1075.40625 153.007812 C 1074.207031 154.605469 1075.804688 156.601562 1079.398438 158.199219 C 1082.992188 159.398438 1084.589844 162.996094 1083.789062 165.792969 C 1082.59375 168.589844 1085.386719 178.574219 1089.78125 187.765625 C 1094.171875 197.351562 1096.96875 206.539062 1095.769531 208.136719 C 1094.574219 210.136719 1095.371094 211.734375 1097.765625 211.734375 C 1100.164062 211.734375 1100.5625 214.929688 1099.363281 218.523438 C 1097.367188 223.320312 1098.566406 224.519531 1102.558594 222.917969 C 1106.550781 221.320312 1108.148438 223.71875 1108.550781 231.308594 C 1108.550781 236.902344 1110.148438 244.492188 1111.742188 248.089844 C 1114.140625 253.28125 1112.144531 255.277344 1102.558594 256.476562 C 1092.976562 258.074219 1090.179688 256.875 1090.179688 251.683594 C 1090.179688 241.695312 1074.207031 222.917969 1067.816406 225.316406 C 1065.023438 226.515625 1062.226562 225.316406 1061.429688 222.917969 C 1060.628906 220.921875 1047.851562 218.523438 1033.074219 218.125 C 1011.910156 217.726562 1006.320312 218.925781 1006.320312 223.71875 C 1006.320312 228.113281 1005.519531 228.511719 1003.125 224.519531 C 1000.328125 220.921875 997.933594 221.320312 992.34375 227.714844 C 988.351562 232.109375 986.351562 235.703125 987.550781 235.703125 C 989.148438 235.703125 986.753906 239.300781 981.960938 244.09375 C 977.167969 248.886719 974.773438 254.878906 975.96875 258.875 C 977.566406 263.667969 975.96875 262.871094 970.78125 256.875 C 966.785156 252.082031 962.792969 248.886719 961.59375 249.6875 C 960.796875 250.484375 959.996094 247.289062 959.996094 242.496094 C 959.996094 237.699219 960.796875 232.90625 962.394531 231.707031 C 967.183594 227.714844 977.96875 194.554688 975.570312 190.558594 C 974.375 188.164062 975.171875 187.765625 977.167969 188.960938 C 979.566406 190.558594 982.757812 188.960938 983.957031 185.367188 C 985.15625 182.171875 984.757812 180.171875 982.757812 181.769531 C 980.761719 182.96875 982.359375 176.976562 986.351562 168.988281 C 990.347656 160.597656 998.734375 139.824219 1004.722656 123.046875 C 1011.113281 106.265625 1017.101562 93.082031 1018.699219 93.882812 C 1019.898438 95.082031 1020.296875 90.6875 1019.496094 84.695312 C 1018.300781 77.101562 1018.699219 75.503906 1021.496094 79.101562 C 1024.289062 83.496094 1025.488281 83.496094 1027.484375 77.902344 C 1029.480469 73.109375 1031.878906 72.308594 1037.867188 75.503906 C 1041.859375 77.902344 1046.253906 78.300781 1047.851562 77.101562 Z M 1047.851562 77.101562 "/>
<path style=" stroke:none;fill-rule:nonzero;fill:rgb(0%,0%,0%);fill-opacity:1;" d="M 1022.691406 133.433594 C 1013.507812 143.417969 1011.511719 149.8125 1019.496094 145.417969 C 1021.894531 143.820312 1019.496094 147.8125 1013.90625 154.207031 C 999.929688 168.988281 995.539062 188.5625 1003.925781 196.953125 C 1007.519531 200.546875 1010.3125 204.941406 1010.3125 207.339844 C 1010.3125 210.136719 1019.898438 211.734375 1034.273438 211.734375 C 1053.839844 211.734375 1057.433594 210.535156 1055.835938 205.742188 C 1053.839844 201.347656 1055.039062 200.546875 1060.628906 202.546875 C 1065.421875 204.144531 1066.621094 203.742188 1064.621094 200.546875 C 1063.023438 197.75 1063.425781 195.753906 1065.421875 195.753906 C 1067.417969 195.753906 1069.015625 192.957031 1069.015625 189.761719 C 1069.015625 186.566406 1067.019531 185.367188 1065.023438 186.566406 C 1062.625 188.164062 1061.828125 186.566406 1063.425781 182.570312 C 1066.621094 173.78125 1055.039062 141.023438 1047.453125 138.226562 C 1037.070312 134.230469 1037.070312 138.226562 1045.855469 164.195312 C 1050.644531 178.175781 1054.238281 190.960938 1054.238281 192.558594 C 1054.238281 194.15625 1044.65625 195.753906 1032.675781 195.753906 L 1011.113281 195.753906 L 1021.894531 163.792969 C 1031.476562 134.628906 1033.074219 131.835938 1041.460938 133.03125 C 1048.25 134.230469 1049.449219 133.433594 1046.652344 130.636719 C 1039.464844 123.445312 1031.078125 124.242188 1022.691406 133.433594 Z M 1022.691406 133.433594 "/>
<path style=" stroke:none;fill-rule:nonzero;fill:rgb(0%,0%,0%);fill-opacity:1;" d="M 1005.121094 18.375 C 999.929688 23.570312 1002.328125 35.953125 1008.316406 35.953125 C 1011.511719 35.953125 1014.308594 33.160156 1014.308594 29.960938 C 1014.308594 26.765625 1014.308594 22.769531 1014.707031 21.171875 C 1015.105469 17.179688 1008.316406 15.179688 1005.121094 18.375 Z M 1005.121094 18.375 "/>
<path style=" stroke:none;fill-rule:nonzero;fill:rgb(0%,0%,0%);fill-opacity:1;" d="M 1035.871094 20.773438 C 1034.273438 23.171875 1035.070312 26.367188 1037.46875 27.164062 C 1040.261719 27.964844 1041.460938 30.363281 1039.863281 32.359375 C 1038.664062 34.355469 1039.464844 35.953125 1041.460938 35.953125 C 1043.855469 35.953125 1046.652344 33.160156 1047.851562 29.5625 C 1052.242188 18.375 1041.859375 10.785156 1035.871094 20.773438 Z M 1035.871094 20.773438 "/>
<path style=" stroke:none;fill-rule:nonzero;fill:rgb(0%,0%,0%);fill-opacity:1;" d="M 1059.429688 22.769531 C 1057.835938 26.765625 1055.039062 31.160156 1052.644531 32.757812 C 1050.246094 34.355469 1053.042969 35.953125 1058.632812 35.953125 C 1071.410156 35.953125 1073.808594 33.558594 1071.410156 23.570312 C 1068.617188 13.980469 1062.625 13.582031 1059.429688 22.769531 Z M 1059.429688 22.769531 "/>
<path style=" stroke:none;fill-rule:nonzero;fill:rgb(0%,0%,0%);fill-opacity:1;" d="M 71.878906 36.753906 L 71.878906 55.929688 L 49.917969 55.929688 C 37.9375 55.929688 27.953125 57.527344 27.953125 59.925781 C 27.953125 61.921875 29.949219 63.917969 31.945312 63.917969 C 34.34375 63.917969 36.339844 81.496094 36.738281 106.664062 L 37.539062 149.8125 L 38.734375 107.863281 C 40.332031 63.519531 41.929688 59.925781 60.699219 59.925781 C 71.082031 59.925781 71.480469 60.722656 73.078125 84.695312 L 74.277344 109.863281 L 75.074219 85.09375 L 75.875 60.324219 L 101.03125 58.726562 L 125.789062 57.527344 L 101.03125 56.730469 C 75.875 55.929688 75.875 55.929688 75.875 43.945312 C 75.875 31.960938 75.875 31.960938 101.03125 31.160156 L 125.789062 30.363281 L 101.828125 29.164062 C 88.652344 28.363281 76.671875 25.167969 75.074219 22.769531 C 73.476562 19.976562 71.878906 26.367188 71.878906 36.753906 Z M 71.878906 36.753906 "/>
<path style=" stroke:none;fill-rule:nonzero;fill:rgb(0%,0%,0%);fill-opacity:1;" d="M 271.546875 23.96875 C 271.546875 25.96875 261.164062 28.363281 248.785156 29.164062 L 225.625 30.363281 L 248.785156 31.160156 C 270.746094 31.960938 271.546875 32.359375 271.546875 42.746094 C 271.546875 56.730469 273.941406 53.53125 276.738281 34.757812 C 277.9375 26.765625 277.535156 19.976562 275.140625 19.976562 C 273.144531 19.976562 271.546875 21.574219 271.546875 23.96875 Z M 271.546875 23.96875 "/>
<path style=" stroke:none;fill-rule:nonzero;fill:rgb(0%,0%,0%);fill-opacity:1;" d="M 101.828125 86.691406 L 72.679688 113.855469 L 72.28125 162.195312 L 71.878906 210.933594 L 103.027344 241.296875 L 133.777344 271.660156 L 226.421875 271.660156 L 246.789062 248.089844 L 267.554688 224.519531 L 247.984375 210.136719 L 228.019531 196.152344 L 214.839844 213.730469 C 202.0625 230.910156 200.863281 231.308594 179.300781 231.707031 C 157.335938 231.707031 156.140625 231.308594 142.164062 214.128906 C 128.585938 197.351562 127.785156 194.953125 127.785156 166.988281 C 127.785156 138.625 128.585938 136.628906 140.964844 124.644531 C 152.945312 113.058594 156.539062 111.859375 177.703125 111.859375 C 201.265625 112.257812 201.664062 112.257812 215.242188 130.234375 L 228.816406 148.214844 L 247.1875 131.035156 C 257.171875 121.445312 265.957031 113.457031 266.753906 113.058594 C 267.554688 112.660156 258.769531 100.671875 247.1875 86.292969 L 226.023438 59.925781 L 131.378906 59.925781 Z M 217.636719 79.101562 C 216.4375 82.695312 216.4375 84.292969 218.035156 82.695312 C 221.628906 79.101562 239.601562 95.480469 239.601562 102.269531 C 239.601562 105.066406 242.792969 108.265625 246.789062 109.0625 C 251.980469 110.660156 251.578125 111.058594 244.792969 111.460938 C 240 111.460938 235.605469 113.855469 234.808594 116.253906 C 234.007812 118.652344 229.21875 118.25 221.628906 114.257812 C 214.839844 110.660156 210.050781 107.066406 210.847656 105.867188 C 214.042969 99.074219 211.246094 95.480469 205.65625 99.875 C 201.664062 103.46875 199.667969 103.46875 199.667969 100.273438 C 199.667969 97.476562 190.882812 95.878906 175.707031 95.878906 C 162.527344 95.878906 151.746094 97.476562 151.746094 99.875 C 151.746094 101.871094 150.148438 103.46875 148.550781 102.671875 C 146.554688 102.269531 138.570312 108.265625 130.582031 115.855469 C 120.199219 125.441406 117.402344 130.234375 120.996094 132.632812 C 124.59375 135.03125 124.59375 135.828125 120.597656 135.828125 C 111.414062 135.828125 108.21875 153.007812 115.40625 163.792969 C 119 169.386719 119.800781 172.183594 117.003906 170.585938 C 113.808594 168.589844 111.8125 169.386719 111.8125 173.382812 C 111.8125 176.578125 113.808594 180.574219 116.207031 182.171875 C 119 183.769531 119.402344 185.765625 116.207031 188.960938 C 111.414062 193.757812 122.195312 217.328125 127.785156 213.730469 C 130.183594 212.132812 131.78125 215.328125 131.78125 220.523438 C 131.78125 230.511719 145.355469 241.695312 152.546875 237.300781 C 155.339844 235.304688 156.140625 236.503906 154.542969 240.898438 C 152.546875 246.488281 155.738281 247.289062 178.101562 246.488281 C 192.078125 246.089844 203.660156 244.09375 203.660156 242.09375 C 203.660156 240.097656 204.457031 239.300781 205.65625 240.496094 C 206.855469 241.695312 213.644531 237.300781 220.433594 231.308594 C 230.015625 221.722656 233.609375 220.523438 238.402344 224.117188 C 243.195312 228.113281 241.597656 231.308594 229.617188 243.695312 C 222.03125 251.683594 216.839844 259.671875 218.433594 261.671875 C 220.433594 263.667969 218.835938 263.269531 215.640625 260.871094 C 212.445312 258.476562 199.265625 256.875 185.691406 257.675781 C 172.511719 258.476562 158.933594 257.277344 155.339844 255.277344 C 151.347656 253.28125 146.953125 253.679688 144.160156 256.875 C 140.164062 260.472656 139.765625 260.074219 142.164062 253.679688 C 144.957031 246.488281 144.558594 246.488281 138.570312 251.285156 C 134.574219 254.480469 131.78125 254.878906 131.78125 252.480469 C 131.78125 250.085938 122.996094 239.699219 111.8125 229.3125 C 101.03125 219.324219 93.042969 209.335938 94.242188 207.339844 C 95.441406 205.339844 93.042969 204.941406 89.449219 206.539062 C 84.660156 208.136719 83.460938 207.738281 85.457031 204.144531 C 89.449219 197.75 89.449219 141.820312 85.457031 135.429688 C 83.859375 132.234375 84.257812 131.835938 87.054688 133.433594 C 89.851562 135.03125 91.847656 133.832031 91.847656 130.234375 C 91.847656 126.640625 89.449219 123.84375 87.054688 123.445312 C 83.460938 123.445312 83.859375 122.644531 87.453125 121.046875 C 90.648438 119.847656 101.828125 109.863281 112.210938 99.476562 C 124.191406 87.089844 132.179688 81.898438 133.378906 85.09375 C 134.976562 87.890625 135.375 86.292969 134.175781 81.496094 C 132.976562 73.507812 134.574219 73.109375 176.503906 73.109375 C 215.242188 72.707031 220.03125 73.507812 217.636719 79.101562 Z M 217.636719 79.101562 "/>
<path style=" stroke:none;fill-rule:nonzero;fill:rgb(0%,0%,0%);fill-opacity:1;" d="M 640.132812 118.652344 C 654.90625 119.449219 678.46875 119.449219 692.042969 118.652344 C 705.621094 117.851562 693.640625 117.453125 664.890625 117.453125 C 636.539062 117.453125 625.355469 117.851562 640.132812 118.652344 Z M 640.132812 118.652344 "/>
<path style=" stroke:none;fill-rule:nonzero;fill:rgb(0%,0%,0%);fill-opacity:1;" d="M 275.539062 178.574219 L 275.9375 233.707031 L 293.511719 252.480469 C 310.679688 271.257812 311.082031 271.660156 335.441406 271.660156 C 356.207031 271.660156 361.398438 270.058594 368.183594 262.46875 L 376.171875 253.679688 L 374.175781 262.46875 C 372.179688 271.257812 373.375 271.660156 393.742188 271.660156 L 415.308594 271.660156 L 415.308594 123.84375 L 366.589844 123.84375 L 368.585938 171.382812 C 370.582031 218.925781 370.582031 218.925781 359.800781 229.3125 L 349.015625 239.300781 L 336.238281 231.707031 L 323.460938 223.71875 L 323.460938 123.84375 L 275.539062 123.84375 Z M 309.085938 140.625 C 304.691406 147.8125 307.488281 176.578125 312.679688 183.371094 C 316.273438 188.164062 316.273438 188.5625 312.679688 186.164062 C 309.085938 184.167969 307.488281 186.566406 307.488281 193.757812 C 307.488281 200.148438 309.085938 203.34375 311.878906 201.347656 C 315.074219 199.347656 315.074219 200.945312 311.878906 206.941406 C 307.488281 215.328125 309.882812 227.714844 315.871094 227.714844 C 317.871094 227.714844 319.066406 230.109375 318.269531 232.507812 C 317.871094 235.304688 319.867188 237.300781 322.660156 236.902344 C 325.058594 236.101562 327.453125 238.101562 327.453125 241.296875 C 327.453125 244.09375 331.445312 247.6875 336.238281 248.886719 C 347.421875 252.082031 345.023438 254.480469 328.652344 256.875 C 319.867188 258.476562 315.472656 257.277344 315.472656 254.082031 C 315.472656 248.488281 301.097656 235.703125 294.308594 235.703125 C 291.113281 235.703125 291.511719 234.105469 295.507812 231.707031 C 300.699219 228.511719 299.101562 226.515625 291.511719 226.914062 C 290.316406 226.914062 289.914062 215.328125 290.316406 200.546875 C 290.714844 185.765625 289.515625 171.785156 286.722656 168.988281 C 283.527344 164.992188 283.925781 164.195312 287.917969 165.792969 C 291.914062 167.390625 293.910156 165.390625 293.910156 160.199219 C 293.910156 155.40625 291.511719 153.40625 287.519531 154.605469 C 284.324219 155.804688 287.121094 151.808594 293.511719 146.214844 C 306.289062 135.429688 313.875 132.632812 309.085938 140.625 Z M 406.921875 160.199219 C 408.519531 164.992188 407.71875 164.992188 402.128906 160.597656 C 396.539062 155.804688 396.140625 156.203125 399.332031 167.789062 C 401.328125 174.582031 401.730469 182.96875 400.53125 186.164062 C 399.332031 189.363281 400.929688 194.953125 403.726562 198.550781 C 408.519531 204.144531 408.519531 204.941406 403.726562 201.746094 C 399.332031 199.347656 398.535156 200.148438 400.53125 204.542969 C 401.730469 208.136719 400.53125 212.933594 398.136719 215.328125 C 394.941406 218.523438 394.941406 219.722656 398.535156 219.722656 C 402.128906 219.722656 402.925781 223.71875 400.929688 234.105469 C 398.933594 244.890625 399.332031 248.089844 402.925781 246.089844 C 410.914062 240.898438 407.71875 246.089844 396.539062 256.078125 C 390.546875 261.269531 387.753906 262.871094 390.546875 259.273438 C 394.542969 253.679688 394.542969 252.480469 390.546875 252.882812 C 375.375 253.28125 371.378906 251.285156 371.378906 242.09375 C 371.378906 236.902344 373.375 231.707031 375.773438 230.910156 C 377.769531 230.109375 380.164062 226.515625 380.964844 222.917969 C 381.363281 218.925781 382.960938 214.53125 384.558594 213.332031 C 388.949219 208.539062 387.753906 193.757812 382.5625 188.164062 C 379.765625 184.96875 379.367188 183.769531 381.761719 184.96875 C 386.953125 187.765625 386.953125 148.613281 381.363281 139.824219 C 379.367188 136.628906 383.757812 138.625 391.347656 144.21875 C 398.933594 149.8125 405.722656 157.003906 406.921875 160.199219 Z M 406.921875 160.199219 "/>
<path style=" stroke:none;fill-rule:nonzero;fill:rgb(0%,0%,0%);fill-opacity:1;" d="M 434.074219 126.640625 C 432.476562 127.839844 431.28125 161.398438 431.28125 200.546875 L 431.28125 271.660156 L 479.199219 271.660156 L 479.199219 234.105469 C 479.199219 198.949219 480 195.355469 489.582031 183.769531 C 497.570312 174.582031 502.761719 171.785156 509.148438 173.382812 C 517.535156 175.378906 518.335938 174.179688 519.933594 150.609375 C 521.128906 137.027344 521.53125 125.042969 520.730469 124.242188 C 519.933594 123.445312 510.746094 130.234375 500.363281 139.425781 L 481.195312 155.804688 L 480 139.824219 L 478.800781 123.84375 L 457.636719 123.84375 C 446.054688 123.84375 435.273438 125.042969 434.074219 126.640625 Z M 465.222656 151.808594 C 465.222656 155.003906 469.214844 157.402344 474.40625 157.800781 C 479.199219 158.199219 485.589844 160.597656 488.382812 163.394531 C 491.980469 167.390625 491.980469 167.789062 487.1875 166.191406 C 482.792969 164.59375 478.003906 170.1875 470.8125 185.367188 C 461.230469 205.339844 460.832031 207.738281 466.421875 213.332031 C 470.8125 217.726562 471.214844 219.722656 468.019531 219.722656 C 465.222656 219.722656 463.226562 224.117188 463.226562 229.710938 C 463.226562 235.304688 465.222656 239.699219 468.019531 239.699219 C 470.414062 239.699219 468.417969 244.09375 463.226562 249.6875 C 458.035156 255.277344 452.445312 259.671875 451.246094 259.671875 C 449.648438 259.671875 448.453125 246.890625 448.453125 231.308594 C 448.050781 216.128906 446.855469 202.144531 445.65625 200.945312 C 441.664062 196.953125 442.859375 190.960938 447.253906 193.757812 C 449.648438 194.953125 451.246094 192.558594 451.246094 188.164062 C 451.246094 183.371094 448.851562 179.773438 446.453125 179.375 C 443.261719 179.375 442.859375 178.574219 445.65625 177.375 C 448.050781 176.578125 449.25 170.585938 448.050781 164.195312 C 447.253906 157.800781 448.453125 151.410156 451.246094 149.8125 C 454.441406 147.8125 454.441406 145.417969 450.449219 140.625 C 445.65625 134.230469 446.054688 134.230469 455.238281 140.222656 C 460.832031 143.820312 465.222656 149.011719 465.222656 151.808594 Z M 465.222656 151.808594 "/>
<path style=" stroke:none;fill-rule:nonzero;fill:rgb(0%,0%,0%);fill-opacity:1;" d="M 547.886719 135.828125 C 531.511719 147.8125 531.113281 148.214844 531.113281 171.785156 L 531.113281 195.355469 L 556.269531 207.339844 C 569.847656 213.730469 587.820312 221.722656 596.203125 225.316406 C 604.191406 228.511719 610.980469 233.707031 610.980469 236.101562 C 610.980469 239.699219 612.179688 240.097656 615.371094 236.902344 C 622.160156 230.109375 604.191406 214.128906 571.84375 197.351562 C 543.492188 182.570312 539.101562 178.574219 547.085938 173.78125 C 549.484375 172.582031 551.078125 167.390625 551.078125 162.195312 C 551.078125 157.003906 554.273438 150.210938 558.667969 146.214844 C 565.058594 140.222656 566.253906 140.222656 571.046875 145.816406 C 575.039062 150.609375 575.039062 151.808594 569.449219 151.808594 C 565.855469 151.808594 563.058594 153.007812 562.660156 154.605469 C 562.660156 156.601562 561.863281 162.59375 561.0625 168.589844 C 559.867188 177.777344 561.460938 180.171875 569.050781 182.171875 C 574.640625 183.371094 578.234375 186.164062 577.835938 187.765625 C 577.4375 189.363281 578.234375 191.359375 579.832031 191.359375 C 581.828125 191.757812 589.015625 195.355469 596.605469 199.75 C 606.585938 204.941406 610.980469 206.140625 612.578125 202.546875 C 613.773438 198.949219 614.574219 199.347656 614.574219 202.945312 C 614.972656 210.136719 624.15625 218.523438 630.148438 217.328125 C 632.941406 216.925781 633.34375 217.328125 630.945312 218.523438 C 628.949219 219.324219 626.953125 224.519531 626.953125 229.710938 C 626.953125 234.503906 624.558594 240.898438 621.363281 243.695312 C 618.167969 246.089844 616.171875 250.484375 617.371094 253.28125 C 618.964844 257.277344 616.570312 258.074219 609.382812 256.875 C 603.792969 255.679688 600.199219 253.28125 601.394531 251.285156 C 602.59375 249.285156 605.390625 248.886719 607.785156 250.085938 C 610.980469 252.082031 611.378906 250.484375 609.78125 246.089844 C 608.183594 242.09375 606.988281 237.699219 606.988281 235.703125 C 606.988281 233.707031 601.394531 234.503906 594.605469 236.902344 C 584.226562 240.898438 580.628906 240.496094 567.851562 232.90625 C 553.476562 224.917969 552.277344 224.917969 541.894531 230.910156 C 534.707031 235.304688 531.113281 240.898438 531.113281 247.6875 C 531.113281 263.269531 551.878906 271.660156 590.613281 271.660156 L 622.160156 271.660156 L 633.742188 252.480469 C 641.328125 240.496094 645.324219 228.511719 645.324219 219.722656 C 644.921875 206.140625 643.726562 204.941406 610.980469 188.960938 C 592.210938 179.773438 575.4375 171.382812 573.042969 170.585938 C 570.648438 169.386719 571.84375 165.792969 575.4375 161.796875 C 581.828125 155.40625 583.027344 155.804688 597.402344 164.59375 L 612.578125 174.582031 L 629.75 162.59375 L 646.921875 150.210938 L 626.953125 137.027344 C 610.582031 126.242188 603.394531 123.84375 585.820312 123.84375 C 568.25 123.84375 561.0625 125.839844 547.886719 135.828125 Z M 547.886719 135.828125 "/>
<path style=" stroke:none;fill-rule:nonzero;fill:rgb(0%,0%,0%);fill-opacity:1;" d="M 704.824219 127.441406 C 700.429688 129.4375 688.050781 140.222656 677.269531 151.011719 L 657.703125 171.382812 L 658.5 202.546875 L 659.300781 233.707031 L 678.066406 252.480469 L 696.4375 271.660156 L 765.921875 271.660156 L 788.285156 248.488281 L 810.648438 225.714844 L 810.648438 173.382812 L 786.6875 149.8125 C 763.125 126.640625 762.328125 126.242188 737.96875 125.042969 C 723.992188 124.644531 709.214844 125.441406 704.824219 127.441406 Z M 776.304688 161.398438 C 796.269531 181.371094 796.671875 182.171875 794.671875 201.746094 C 793.074219 215.730469 790.679688 222.121094 786.289062 222.917969 C 781.894531 223.71875 779.097656 220.523438 777.902344 213.730469 C 776.703125 208.136719 777.101562 203.742188 778.699219 203.742188 C 783.09375 203.742188 781.496094 186.566406 776.703125 181.371094 C 753.144531 154.605469 750.347656 152.609375 732.378906 153.40625 C 711.210938 153.804688 690.449219 172.582031 688.050781 193.757812 C 686.054688 212.132812 693.242188 235.703125 701.230469 235.703125 C 704.425781 235.703125 706.421875 238.101562 706.019531 240.496094 C 705.222656 243.292969 708.019531 245.292969 712.011719 245.292969 C 720.796875 244.492188 720.796875 249.285156 712.011719 256.078125 C 708.417969 259.273438 706.421875 259.671875 708.019531 257.277344 C 709.617188 254.480469 707.21875 251.683594 702.425781 250.484375 C 697.636719 249.285156 695.238281 246.488281 696.835938 243.695312 C 698.035156 241.296875 698.035156 240.097656 696.039062 240.496094 C 685.257812 243.292969 676.46875 234.90625 675.671875 220.921875 C 674.875 212.53125 673.675781 205.339844 672.875 204.542969 C 672.078125 203.34375 672.875 199.347656 674.875 195.753906 C 677.667969 190.558594 677.269531 187.765625 672.875 186.164062 C 668.882812 184.566406 672.875 178.175781 688.050781 162.996094 C 708.417969 142.222656 709.214844 141.820312 732.378906 141.421875 C 755.9375 141.023438 756.335938 141.023438 776.304688 161.398438 Z M 755.9375 177.777344 C 778.699219 197.75 762.726562 239.699219 732.378906 239.699219 C 706.820312 239.699219 692.84375 196.953125 711.613281 176.976562 C 722.792969 164.992188 741.5625 164.992188 755.9375 177.777344 Z M 784.691406 227.714844 C 789.082031 229.710938 790.28125 231.308594 787.484375 231.308594 C 784.289062 231.707031 778.699219 235.703125 774.308594 240.496094 C 768.316406 248.089844 767.121094 248.488281 766.71875 242.894531 C 766.71875 239.300781 768.714844 234.90625 770.714844 233.707031 C 773.109375 232.109375 773.90625 229.3125 772.710938 227.3125 C 769.914062 222.917969 773.90625 222.917969 784.691406 227.714844 Z M 784.691406 227.714844 "/>
<path style=" stroke:none;fill-rule:nonzero;fill:rgb(0%,0%,0%);fill-opacity:1;" d="M 9.585938 169.785156 C 8.386719 172.980469 8.386719 177.375 9.984375 179.773438 C 14.375 186.964844 19.964844 184.167969 19.964844 173.78125 C 19.964844 162.996094 13.179688 160.199219 9.585938 169.785156 Z M 9.585938 169.785156 "/>
<path style=" stroke:none;fill-rule:nonzero;fill:rgb(0%,0%,0%);fill-opacity:1;" d="M 24.757812 173.78125 C 25.558594 180.171875 27.15625 182.171875 29.550781 179.773438 C 34.742188 174.582031 41.132812 174.582031 37.9375 179.773438 C 36.738281 181.769531 37.136719 183.769531 39.132812 183.769531 C 45.125 183.769531 48.71875 170.984375 44.324219 166.589844 C 41.53125 163.792969 37.9375 164.59375 33.542969 168.1875 C 28.753906 171.785156 27.554688 172.183594 29.550781 168.589844 C 31.148438 166.191406 30.347656 163.792969 28.351562 163.792969 C 25.957031 163.792969 24.359375 168.1875 24.757812 173.78125 Z M 24.757812 173.78125 "/>
<path style=" stroke:none;fill-rule:nonzero;fill:rgb(0%,0%,0%);fill-opacity:1;" d="M 57.105469 168.589844 C 48.71875 179.375 48.71875 182.171875 56.304688 182.570312 C 61.898438 182.96875 63.492188 180.972656 63.09375 173.382812 C 61.898438 162.195312 61.898438 162.195312 57.105469 168.589844 Z M 57.105469 168.589844 "/>
<path style=" stroke:none;fill-rule:nonzero;fill:rgb(0%,0%,0%);fill-opacity:1;" d="M 36.738281 234.503906 C 36.339844 253.679688 34.34375 267.664062 31.945312 267.664062 C 29.949219 267.664062 27.953125 269.261719 27.953125 271.660156 C 27.953125 273.65625 37.9375 275.652344 49.917969 275.652344 L 71.878906 275.652344 L 71.878906 551.304688 L 61.097656 551.304688 C 41.929688 551.304688 40.332031 547.710938 38.734375 505.363281 L 37.539062 465.414062 L 36.738281 508.558594 C 36.339844 536.125 34.34375 550.90625 31.945312 549.308594 C 29.949219 548.109375 27.953125 548.910156 27.953125 550.90625 C 27.953125 553.703125 37.136719 555.300781 49.917969 555.300781 L 71.878906 555.300781 L 72.28125 578.074219 C 72.679688 590.855469 73.476562 598.046875 74.675781 594.453125 C 75.875 589.257812 81.863281 587.261719 101.03125 586.0625 L 125.789062 584.863281 L 101.03125 584.066406 L 75.875 583.265625 L 75.875 555.300781 L 131.78125 555.300781 L 131.78125 487.386719 L 214.441406 487.386719 L 243.195312 455.828125 L 271.546875 424.265625 L 271.546875 360.347656 L 208.453125 307.613281 L 75.875 307.613281 L 75.875 276.054688 L 101.03125 274.453125 L 125.789062 273.257812 L 101.03125 272.457031 L 76.273438 271.660156 L 74.675781 246.488281 L 73.476562 221.722656 L 72.679688 246.890625 L 71.878906 272.058594 L 57.105469 270.859375 L 41.929688 269.660156 L 39.535156 235.703125 L 37.539062 201.746094 Z M 106.222656 328.386719 C 103.425781 323.59375 109.019531 322.792969 163.726562 321.996094 C 175.707031 321.59375 188.085938 319.996094 191.28125 318 C 195.273438 315.203125 196.074219 315.601562 193.675781 319.597656 C 191.28125 323.59375 192.480469 324.390625 198.867188 322.792969 C 204.859375 321.195312 207.652344 321.996094 207.652344 325.589844 C 207.652344 328.785156 211.246094 331.980469 215.242188 333.582031 C 219.632812 334.777344 230.414062 343.96875 239.601562 353.953125 C 249.582031 364.742188 257.96875 370.734375 260.765625 368.734375 C 263.960938 367.136719 263.558594 368.335938 260.367188 372.730469 C 257.171875 376.328125 255.574219 383.117188 255.972656 388.3125 C 256.769531 393.503906 255.972656 399.496094 254.375 402.292969 C 252.777344 404.691406 253.175781 408.285156 255.574219 409.484375 C 259.964844 412.28125 247.1875 429.859375 220.832031 457.425781 C 206.054688 472.605469 204.457031 473.40625 179.699219 473.804688 C 165.324219 473.804688 150.949219 475.003906 147.753906 475.800781 C 144.558594 477 142.960938 477.398438 144.957031 476.601562 C 146.554688 475.402344 147.753906 473.003906 147.753906 471.007812 C 147.753906 465.414062 134.574219 472.207031 122.996094 484.191406 C 110.214844 497.375 108.617188 504.164062 119 500.570312 C 124.992188 498.171875 125.390625 498.574219 119.800781 504.964844 C 116.605469 508.960938 114.210938 517.75 113.808594 524.941406 C 113.808594 535.328125 112.210938 537.324219 103.828125 537.324219 C 98.234375 537.324219 91.046875 538.921875 87.851562 541.320312 C 83.460938 544.117188 83.460938 542.519531 89.050781 534.128906 C 93.042969 527.734375 94.242188 523.339844 91.449219 523.339844 C 88.652344 523.339844 87.453125 510.558594 88.253906 483.792969 C 89.050781 455.425781 87.851562 442.242188 83.859375 437.847656 C 79.46875 432.257812 79.46875 431.457031 84.257812 433.453125 C 88.253906 435.054688 90.25 431.457031 91.046875 421.070312 C 91.847656 407.488281 91.449219 407.089844 85.058594 411.882812 C 78.667969 417.074219 78.269531 416.675781 83.460938 410.285156 C 87.453125 405.488281 88.652344 393.105469 88.253906 369.933594 C 87.851562 348.761719 89.050781 335.179688 91.847656 333.582031 C 95.042969 331.582031 94.242188 327.988281 89.050781 322.394531 C 82.660156 315.203125 83.460938 315.203125 95.441406 323.59375 C 103.027344 328.785156 107.820312 331.183594 106.222656 328.386719 Z M 106.222656 328.386719 "/>
<path style=" stroke:none;fill-rule:nonzero;fill:rgb(0%,0%,0%);fill-opacity:1;" d="M 140.566406 343.566406 C 118.203125 352.757812 114.609375 360.746094 115.40625 397.898438 C 116.207031 432.257812 120.597656 449.835938 128.1875 445.441406 C 130.183594 443.839844 131.78125 445.441406 131.78125 448.636719 C 131.78125 457.425781 163.328125 459.820312 175.707031 451.832031 C 184.890625 446.238281 185.289062 446.238281 180.5 451.832031 C 176.105469 457.425781 176.90625 458.222656 185.691406 456.226562 C 191.28125 455.425781 194.476562 452.628906 192.878906 450.234375 C 191.679688 447.835938 192.480469 447.4375 194.875 449.035156 C 200.464844 452.230469 212.046875 441.445312 225.222656 420.269531 C 234.007812 406.289062 234.410156 404.691406 228.019531 400.296875 C 222.429688 396.300781 222.828125 395.902344 229.617188 398.300781 C 236.007812 400.296875 236.804688 399.496094 232.8125 395.503906 C 230.414062 392.707031 229.21875 388.3125 230.015625 385.914062 C 232.410156 379.921875 204.058594 346.765625 199.265625 349.960938 C 197.269531 351.160156 195.671875 350.359375 195.671875 347.960938 C 195.671875 343.167969 158.136719 344.367188 145.757812 349.558594 C 137.769531 352.757812 137.769531 352.757812 145.757812 346.363281 C 154.941406 339.171875 153.742188 338.375 140.566406 343.566406 Z M 204.457031 370.335938 C 220.433594 385.515625 220.03125 408.6875 203.660156 426.265625 C 192.480469 439.046875 190.480469 439.445312 161.730469 439.445312 L 131.78125 439.445312 L 131.78125 359.546875 L 162.527344 359.546875 C 190.480469 359.546875 194.074219 360.347656 204.457031 370.335938 Z M 204.457031 370.335938 "/>
<path style=" stroke:none;fill-rule:nonzero;fill:rgb(0%,0%,0%);fill-opacity:1;" d="M 654.109375 274.453125 C 660.898438 275.253906 672.875 275.253906 680.066406 274.453125 C 686.851562 273.65625 681.261719 272.855469 666.886719 272.855469 C 652.511719 272.855469 646.921875 273.65625 654.109375 274.453125 Z M 654.109375 274.453125 "/>
<path style=" stroke:none;fill-rule:nonzero;fill:rgb(0%,0%,0%);fill-opacity:1;" d="M 799.863281 274.453125 C 812.644531 275.253906 832.210938 275.253906 843.792969 274.453125 C 855.371094 273.65625 844.988281 273.257812 820.628906 273.257812 C 796.671875 273.257812 787.085938 273.65625 799.863281 274.453125 Z M 799.863281 274.453125 "/>
<path style=" stroke:none;fill-rule:nonzero;fill:rgb(0%,0%,0%);fill-opacity:1;" d="M 1013.507812 274.453125 C 1024.6875 275.253906 1043.855469 275.253906 1055.4375 274.453125 C 1066.621094 273.65625 1057.433594 273.257812 1034.273438 273.257812 C 1011.113281 273.257812 1001.925781 273.65625 1013.507812 274.453125 Z M 1013.507812 274.453125 "/>
<path style=" stroke:none;fill-rule:nonzero;fill:rgb(0%,0%,0%);fill-opacity:1;" d="M 186.089844 282.445312 C 181.296875 287.238281 183.691406 299.625 189.683594 299.625 C 192.878906 299.625 195.671875 296.027344 195.671875 292.03125 C 195.671875 283.644531 190.480469 278.449219 186.089844 282.445312 Z M 186.089844 282.445312 "/>
<path style=" stroke:none;fill-rule:nonzero;fill:rgb(0%,0%,0%);fill-opacity:1;" d="M 947.21875 324.390625 L 946.421875 371.132812 L 925.65625 372.730469 L 904.488281 373.929688 L 925.65625 374.730469 L 946.421875 375.527344 L 946.421875 389.511719 C 946.421875 397.101562 945.621094 403.492188 944.023438 403.492188 C 942.824219 403.492188 930.046875 396.300781 915.671875 387.511719 L 889.316406 371.933594 L 876.9375 380.320312 C 870.148438 385.117188 857.769531 394.304688 849.78125 400.695312 L 834.605469 412.28125 L 834.605469 376.328125 L 806.652344 374.730469 L 779.097656 373.53125 L 777.902344 464.617188 L 776.703125 555.300781 L 832.609375 554.503906 C 863.359375 554.101562 876.535156 553.304688 861.761719 552.503906 L 834.605469 550.90625 L 834.605469 423.46875 L 855.769531 423.46875 C 872.941406 423.46875 878.933594 425.464844 886.121094 433.054688 C 894.507812 441.84375 894.90625 445.039062 893.707031 498.972656 L 892.511719 555.300781 L 946.421875 555.300781 L 946.421875 486.1875 C 946.421875 448.636719 947.617188 408.285156 948.816406 396.699219 L 951.613281 375.925781 L 973.972656 374.328125 L 996.335938 373.128906 L 973.574219 372.332031 L 950.8125 371.53125 L 949.214844 324.390625 L 948.015625 277.652344 Z M 817.035156 387.113281 C 815.839844 389.109375 817.835938 396.300781 821.03125 403.492188 C 825.820312 412.679688 826.21875 417.476562 823.027344 420.671875 C 820.230469 423.46875 820.230469 426.265625 823.027344 430.257812 C 825.820312 433.453125 826.21875 435.453125 823.425781 435.453125 C 821.429688 435.453125 818.632812 438.25 817.433594 441.046875 C 815.839844 445.441406 817.035156 446.238281 821.828125 444.640625 C 827.417969 442.242188 827.816406 443.042969 823.425781 448.234375 C 817.433594 455.425781 817.835938 490.980469 824.222656 498.972656 C 827.417969 503.367188 827.417969 504.164062 824.222656 502.167969 C 821.03125 500.570312 819.03125 503.765625 817.835938 510.957031 C 816.636719 518.945312 817.433594 521.742188 821.03125 520.546875 C 825.023438 518.945312 825.023438 520.546875 821.429688 528.535156 C 819.03125 534.128906 816.238281 538.125 815.4375 537.324219 C 814.640625 536.523438 809.847656 537.324219 805.054688 539.320312 C 795.074219 542.917969 795.074219 543.714844 794.671875 505.765625 C 794.671875 492.582031 792.675781 479.398438 789.882812 476.601562 C 786.289062 472.207031 787.085938 471.804688 792.675781 473.804688 C 798.265625 476.199219 799.066406 475.402344 796.671875 471.40625 C 795.074219 468.609375 793.476562 454.230469 793.875 439.847656 C 793.875 425.464844 792.277344 411.480469 789.882812 408.285156 C 787.484375 405.488281 787.085938 403.492188 789.082031 403.890625 C 797.070312 405.488281 800.265625 403.09375 795.074219 399.898438 C 790.679688 397.101562 792.277344 394.703125 803.058594 390.308594 C 819.832031 382.71875 819.433594 382.71875 817.035156 387.113281 Z M 908.484375 399.898438 C 917.269531 405.488281 922.0625 410.683594 920.863281 414.277344 C 919.265625 418.671875 920.464844 418.671875 926.453125 415.476562 C 932.042969 412.679688 934.441406 412.679688 934.441406 415.476562 C 934.441406 417.476562 933.242188 419.472656 931.644531 419.472656 C 929.648438 419.472656 929.25 433.054688 930.445312 449.835938 C 931.644531 466.214844 930.847656 482.59375 929.25 485.789062 C 926.851562 489.785156 928.050781 490.582031 933.242188 488.984375 C 939.632812 486.988281 939.632812 487.386719 934.441406 492.179688 C 928.050781 497.773438 926.453125 530.132812 932.441406 539.320312 C 934.441406 542.917969 933.640625 543.714844 930.046875 541.71875 C 926.851562 540.519531 921.261719 538.125 917.667969 536.925781 C 910.082031 534.128906 909.28125 531.332031 910.480469 515.75 C 910.878906 508.960938 909.679688 507.363281 905.6875 509.757812 C 901.695312 512.15625 901.296875 511.757812 905.289062 506.5625 C 911.277344 499.769531 911.277344 468.210938 905.289062 464.617188 C 903.292969 463.417969 903.691406 461.019531 906.488281 459.421875 C 912.476562 455.828125 907.285156 435.453125 900.097656 435.453125 C 896.902344 435.453125 895.703125 433.054688 896.902344 429.460938 C 898.5 425.863281 894.105469 420.671875 884.523438 414.679688 L 869.347656 405.890625 L 878.535156 398.699219 C 889.714844 389.511719 890.914062 389.511719 908.484375 399.898438 Z M 908.484375 399.898438 "/>
<path style=" stroke:none;fill-rule:nonzero;fill:rgb(0%,0%,0%);fill-opacity:1;" d="M 1130.910156 290.433594 C 1130.113281 302.820312 1129.316406 303.21875 1111.34375 304.816406 L 1092.175781 306.015625 L 1111.34375 306.8125 L 1130.113281 307.613281 L 1130.910156 356.351562 C 1131.3125 383.519531 1132.109375 398.699219 1132.910156 390.707031 C 1134.105469 381.121094 1136.902344 375.527344 1141.292969 374.328125 C 1147.285156 372.730469 1147.285156 372.332031 1141.292969 371.933594 C 1134.90625 371.53125 1134.105469 367.136719 1134.105469 339.972656 C 1134.105469 313.207031 1135.304688 308.011719 1141.292969 306.414062 C 1147.285156 304.816406 1147.285156 304.417969 1141.292969 304.019531 C 1136.902344 303.617188 1134.105469 299.222656 1132.910156 290.433594 L 1131.3125 277.652344 Z M 1130.910156 290.433594 "/>
<path style=" stroke:none;fill-rule:nonzero;fill:rgb(0%,0%,0%);fill-opacity:1;" d="M 91.046875 290.433594 C 98.234375 291.234375 109.019531 291.234375 115.007812 290.433594 C 120.996094 289.636719 115.007812 288.835938 101.828125 288.835938 C 88.652344 288.835938 83.859375 289.636719 91.046875 290.433594 Z M 91.046875 290.433594 "/>
<path style=" stroke:none;fill-rule:nonzero;fill:rgb(0%,0%,0%);fill-opacity:1;" d="M 1029.878906 306.414062 C 1020.296875 318.398438 998.332031 350.757812 998.332031 353.15625 C 998.332031 354.355469 1007.917969 355.554688 1019.898438 355.554688 C 1031.878906 355.554688 1042.261719 357.152344 1043.058594 358.75 C 1043.855469 360.746094 1054.640625 347.960938 1067.019531 330.785156 L 1090.179688 299.625 L 1062.625 299.625 C 1041.460938 299.625 1034.273438 301.222656 1029.878906 306.414062 Z M 1050.246094 324.390625 C 1050.246094 328.386719 1048.648438 331.582031 1046.253906 331.582031 C 1044.257812 331.582031 1042.261719 334.378906 1042.261719 337.574219 C 1042.261719 342.769531 1041.0625 342.769531 1037.070312 338.773438 C 1033.875 336.375 1032.277344 330.382812 1033.476562 325.589844 C 1035.472656 315.203125 1050.246094 314.003906 1050.246094 324.390625 Z M 1050.246094 324.390625 "/>
<path style=" stroke:none;fill-rule:nonzero;fill:rgb(0%,0%,0%);fill-opacity:1;" d="M 35.941406 307.613281 C 30.347656 309.210938 28.351562 310.808594 31.148438 311.207031 C 34.742188 311.609375 36.339844 324.390625 36.738281 358.347656 L 37.539062 405.488281 L 38.734375 361.945312 C 39.535156 337.574219 41.929688 316.003906 44.324219 313.207031 C 46.722656 310.410156 53.511719 307.214844 59.101562 306.414062 C 69.484375 304.816406 69.484375 304.816406 57.902344 304.417969 C 51.515625 304.417969 41.53125 306.015625 35.941406 307.613281 Z M 35.941406 307.613281 "/>
<path style=" stroke:none;fill-rule:nonzero;fill:rgb(0%,0%,0%);fill-opacity:1;" d="M 1036.269531 371.53125 C 1035.070312 373.53125 1027.085938 375.527344 1018.300781 375.527344 C 1004.324219 375.527344 1001.925781 377.523438 983.160156 402.292969 L 962.792969 429.460938 L 987.152344 430.660156 C 1004.722656 431.457031 1013.109375 430.257812 1017.902344 425.863281 C 1025.886719 418.671875 1058.632812 417.074219 1070.613281 423.46875 C 1075.003906 425.863281 1078.199219 431.855469 1078.199219 437.449219 C 1078.199219 447.039062 1077.402344 447.4375 1050.246094 447.4375 C 1027.085938 447.4375 1018.300781 449.433594 996.335938 460.222656 L 970.378906 473.003906 L 970.378906 495.375 C 970.378906 515.351562 971.976562 518.945312 986.753906 536.523438 L 1003.125 555.300781 L 1029.878906 555.300781 C 1051.84375 555.300781 1058.234375 553.703125 1064.222656 547.3125 C 1073.40625 536.925781 1078.199219 536.925781 1075.40625 547.3125 C 1073.40625 554.902344 1075.40625 555.300781 1103.757812 555.300781 L 1134.105469 555.300781 L 1134.105469 484.191406 L 1133.707031 413.480469 L 1106.152344 394.304688 C 1082.191406 377.925781 1076.203125 375.527344 1058.234375 375.527344 C 1045.453125 375.527344 1038.664062 373.929688 1040.261719 371.53125 C 1041.460938 369.136719 1041.859375 367.539062 1040.664062 367.539062 C 1039.464844 367.539062 1037.46875 369.136719 1036.269531 371.53125 Z M 1068.214844 390.707031 C 1075.003906 389.109375 1078.199219 390.308594 1078.199219 393.90625 C 1078.199219 397.101562 1080.195312 399.496094 1082.992188 399.496094 C 1085.386719 399.496094 1093.375 403.890625 1100.5625 409.484375 C 1107.75 415.078125 1115.738281 419.472656 1118.132812 419.472656 C 1120.53125 419.472656 1121.328125 421.46875 1119.730469 424.265625 C 1115.339844 431.058594 1118.132812 484.988281 1122.925781 486.988281 C 1125.71875 487.785156 1125.71875 488.984375 1122.925781 490.980469 C 1118.132812 493.777344 1115.339844 527.734375 1119.332031 533.730469 C 1120.929688 536.523438 1115.339844 538.125 1104.15625 538.523438 C 1094.574219 538.921875 1085.386719 537.722656 1084.191406 535.328125 C 1082.59375 532.929688 1079.796875 532.128906 1077.800781 533.328125 C 1075.804688 534.925781 1074.207031 530.132812 1074.207031 523.339844 C 1074.207031 516.152344 1075.804688 511.757812 1078.199219 513.355469 C 1080.597656 514.554688 1082.191406 513.753906 1082.191406 511.355469 C 1082.191406 508.960938 1083.789062 507.761719 1085.789062 508.960938 C 1090.179688 511.757812 1090.179688 491.382812 1085.386719 482.195312 C 1083.390625 478.199219 1080.195312 476.199219 1077.800781 477.398438 C 1070.214844 482.195312 1074.207031 452.628906 1082.191406 445.441406 C 1092.574219 435.851562 1092.175781 426.664062 1080.996094 417.074219 C 1067.019531 404.691406 1060.230469 401.09375 1064.222656 407.886719 C 1066.621094 412.28125 1066.21875 412.679688 1061.828125 408.285156 C 1056.238281 403.09375 1022.292969 401.496094 1022.292969 406.6875 C 1022.292969 408.6875 1019.898438 410.285156 1017.5 410.285156 C 1014.707031 410.285156 1009.117188 411.882812 1005.519531 413.480469 C 995.9375 417.476562 996.335938 409.484375 1006.320312 396.699219 C 1010.710938 391.109375 1014.308594 388.710938 1014.308594 391.109375 C 1014.308594 393.90625 1016.304688 394.703125 1019.097656 393.105469 C 1027.882812 387.511719 1048.25 384.714844 1053.042969 388.710938 C 1055.835938 390.707031 1062.625 391.507812 1068.214844 390.707031 Z M 1053.042969 464.214844 C 1057.835938 464.617188 1064.222656 475.402344 1059.832031 475.402344 C 1058.632812 475.402344 1052.644531 472.605469 1045.855469 469.410156 C 1032.675781 462.617188 1026.285156 464.214844 1026.285156 474.601562 C 1026.285156 479.796875 1025.488281 480.195312 1023.09375 476.199219 C 1020.695312 472.605469 1018.300781 474.203125 1015.105469 481.394531 C 1012.308594 487.386719 1011.113281 493.777344 1012.308594 495.777344 C 1013.90625 497.773438 1012.710938 499.371094 1010.3125 499.371094 C 1007.117188 499.371094 1007.117188 501.769531 1010.3125 507.363281 C 1012.710938 511.757812 1016.703125 514.152344 1019.097656 512.953125 C 1021.894531 510.957031 1022.691406 512.15625 1021.09375 516.550781 C 1019.898438 520.144531 1021.496094 523.742188 1025.488281 525.738281 C 1035.070312 529.734375 1037.070312 530.132812 1049.046875 530.933594 C 1067.019531 531.730469 1055.039062 536.925781 1029.878906 539.320312 C 1011.910156 540.917969 1006.71875 540.519531 1007.917969 536.523438 C 1009.117188 534.128906 1006.71875 530.53125 1002.726562 529.335938 C 993.542969 526.539062 987.152344 513.355469 985.554688 494.179688 C 984.355469 484.191406 985.554688 479.398438 989.148438 479.398438 C 995.9375 479.398438 1022.292969 466.613281 1022.292969 463.019531 C 1022.292969 460.621094 1030.679688 461.019531 1053.042969 464.214844 Z M 1076.203125 492.179688 C 1072.210938 505.765625 1059.03125 515.351562 1044.65625 515.351562 C 1029.082031 515.351562 1022.292969 509.359375 1022.292969 494.578125 L 1022.292969 483.390625 L 1050.644531 483.390625 C 1077.800781 483.390625 1078.597656 483.792969 1076.203125 492.179688 Z M 1076.203125 492.179688 "/>
<path style=" stroke:none;fill-rule:nonzero;fill:rgb(0%,0%,0%);fill-opacity:1;" d="M 568.652344 383.117188 C 560.265625 389.109375 549.484375 398.300781 545.488281 403.09375 C 533.507812 416.277344 529.914062 413.480469 532.3125 393.503906 L 535.105469 375.527344 L 479.199219 375.527344 L 479.199219 550.90625 L 466.421875 552.503906 C 459.234375 553.304688 471.613281 554.503906 493.976562 554.503906 L 535.105469 555.300781 L 533.910156 502.566406 L 533.109375 449.835938 L 560.265625 436.652344 L 587.019531 423.46875 L 587.019531 375.925781 L 604.191406 374.328125 L 620.964844 372.730469 L 602.59375 372.332031 C 587.820312 371.53125 581.03125 373.929688 568.652344 383.117188 Z M 517.136719 392.304688 C 515.9375 395.101562 518.335938 401.894531 522.328125 407.488281 C 527.121094 415.078125 533.109375 417.476562 543.890625 417.875 C 552.277344 418.273438 557.867188 417.074219 557.070312 415.476562 C 555.871094 413.878906 557.867188 411.480469 561.0625 409.882812 C 567.453125 407.488281 568.652344 410.683594 563.859375 417.875 C 560.265625 423.46875 537.503906 429.460938 541.097656 423.46875 C 542.292969 421.46875 541.496094 419.472656 539.5 419.472656 C 537.101562 419.472656 535.105469 423.867188 535.105469 429.460938 C 535.105469 435.054688 533.910156 439.046875 532.3125 438.648438 C 530.316406 437.847656 528.316406 439.046875 527.519531 441.445312 C 526.71875 443.441406 523.125 447.4375 519.53125 450.234375 C 515.140625 453.828125 514.742188 455.027344 518.335938 455.425781 C 521.53125 455.425781 522.328125 457.425781 520.332031 460.222656 C 515.539062 468.210938 514.742188 494.578125 519.132812 497.375 C 522.328125 499.371094 521.929688 502.167969 518.734375 506.164062 C 514.742188 510.558594 514.742188 512.554688 518.734375 515.351562 C 522.328125 517.347656 522.726562 519.347656 519.53125 520.945312 C 517.136719 522.542969 515.140625 527.335938 515.140625 531.730469 C 515.140625 536.125 513.542969 538.523438 511.148438 537.324219 C 509.148438 536.125 503.558594 536.925781 498.765625 539.722656 C 491.980469 543.316406 490.78125 542.917969 493.574219 538.921875 C 497.96875 531.730469 495.171875 490.582031 489.980469 483.792969 C 486.789062 479.796875 486.789062 478.597656 489.582031 480.59375 C 496.371094 484.589844 496.769531 432.257812 490.382812 424.265625 C 487.1875 420.269531 487.1875 419.074219 489.582031 420.671875 C 492.378906 422.269531 495.171875 420.269531 496.371094 415.875 C 497.570312 410.683594 496.769531 408.6875 492.777344 410.285156 C 488.785156 411.882812 488.382812 410.285156 492.378906 402.292969 C 494.773438 396.699219 499.167969 393.105469 501.5625 394.304688 C 504.359375 395.101562 507.550781 394.304688 509.148438 391.90625 C 512.742188 385.914062 519.132812 386.3125 517.136719 392.304688 Z M 517.136719 392.304688 "/>
<path style=" stroke:none;fill-rule:nonzero;fill:rgb(0%,0%,0%);fill-opacity:1;" d="M 305.890625 403.492188 L 287.519531 431.457031 L 313.476562 431.457031 C 333.042969 431.457031 340.230469 429.859375 341.828125 425.464844 C 343.425781 421.46875 350.214844 419.472656 362.992188 419.472656 C 383.757812 419.472656 392.945312 424.664062 397.335938 438.25 C 399.734375 447.039062 398.933594 447.4375 369.78125 447.4375 C 343.824219 447.4375 335.839844 449.433594 313.476562 460.222656 L 287.519531 473.003906 L 287.519531 495.375 C 287.917969 515.75 289.117188 518.945312 305.488281 536.125 L 322.660156 555.300781 L 350.613281 555.300781 C 376.171875 555.300781 379.367188 554.503906 386.953125 544.914062 C 391.746094 538.921875 395.339844 530.132812 395.339844 525.339844 C 395.339844 520.144531 399.332031 514.554688 404.523438 511.757812 C 411.710938 508.160156 411.710938 507.363281 405.324219 509.359375 C 397.335938 511.355469 397.335938 511.355469 404.925781 505.363281 C 411.710938 500.570312 412.113281 497.375 408.917969 488.1875 C 406.519531 482.195312 402.527344 477.800781 400.132812 478.199219 C 391.746094 480.195312 394.542969 453.828125 403.328125 448.234375 C 407.71875 445.441406 411.3125 440.246094 411.3125 436.25 C 410.914062 427.863281 401.328125 414.679688 398.136719 418.273438 C 396.539062 419.472656 395.339844 417.476562 395.339844 413.082031 C 395.339844 406.289062 392.144531 405.089844 369.382812 404.292969 C 346.621094 403.09375 343.425781 403.890625 343.027344 410.285156 C 343.027344 414.277344 341.828125 415.476562 340.632812 412.679688 C 339.433594 408.6875 337.039062 408.6875 331.445312 412.28125 C 321.0625 419.074219 316.671875 413.082031 324.65625 404.292969 C 328.652344 400.296875 331.445312 395.101562 331.445312 393.105469 C 331.445312 388.3125 382.960938 388.3125 390.546875 392.707031 C 393.34375 394.703125 395.339844 394.304688 395.339844 391.507812 C 395.339844 389.109375 404.125 395.902344 415.308594 406.6875 C 426.089844 417.476562 436.472656 425.066406 437.667969 423.867188 C 439.265625 422.667969 439.265625 423.867188 437.667969 426.664062 C 436.070312 429.460938 434.074219 446.238281 434.074219 463.816406 C 433.277344 490.183594 434.074219 494.976562 439.265625 493.378906 C 444.457031 491.78125 444.457031 491.78125 439.265625 496.175781 C 433.277344 501.371094 431.28125 529.734375 436.472656 538.125 C 439.265625 542.519531 410.914062 539.722656 404.925781 534.925781 C 398.933594 530.132812 395.339844 534.527344 395.339844 546.113281 C 395.339844 554.902344 396.539062 555.300781 423.292969 555.300781 L 451.246094 555.300781 L 451.246094 416.675781 L 427.6875 395.902344 L 404.125 375.527344 L 324.65625 375.527344 Z M 383.359375 473.40625 C 383.359375 474.203125 378.96875 473.40625 373.777344 471.40625 C 368.585938 469.410156 360.597656 469.011719 355.804688 470.207031 C 351.015625 471.40625 347.421875 470.609375 347.421875 467.8125 C 347.421875 465.414062 350.613281 464.617188 354.609375 466.214844 C 360.597656 468.609375 360.996094 468.210938 355.40625 461.417969 C 350.214844 455.027344 351.414062 455.425781 366.589844 463.019531 C 375.773438 467.8125 383.359375 472.207031 383.359375 473.40625 Z M 369.78125 483.390625 C 394.140625 483.390625 395.339844 483.792969 395.339844 492.980469 C 395.339844 505.363281 381.761719 515.351562 364.992188 515.351562 C 348.617188 515.351562 344.625 509.757812 342.230469 483.390625 C 341.429688 471.40625 341.429688 466.214844 342.230469 472.207031 C 343.824219 482.992188 344.625 483.390625 369.78125 483.390625 Z M 333.84375 478.199219 C 332.644531 484.589844 330.648438 492.980469 329.449219 497.773438 C 326.253906 510.957031 343.027344 526.9375 363.394531 530.933594 L 381.363281 534.128906 L 366.1875 537.324219 C 358.203125 538.921875 347.019531 539.320312 341.429688 538.523438 C 335.839844 537.324219 331.445312 538.125 331.445312 539.722656 C 331.445312 541.71875 325.058594 536.125 317.070312 527.335938 C 306.6875 515.75 303.09375 508.558594 303.894531 500.570312 C 304.691406 494.578125 303.492188 486.988281 301.496094 483.792969 C 299.101562 479.398438 299.898438 478.597656 304.691406 480.59375 C 308.285156 481.792969 312.277344 481.394531 313.875 478.996094 C 315.871094 475.402344 328.652344 468.609375 335.039062 467.8125 C 335.839844 467.410156 335.441406 472.207031 333.84375 478.199219 Z M 333.84375 478.199219 "/>
<path style=" stroke:none;fill-rule:nonzero;fill:rgb(0%,0%,0%);fill-opacity:1;" d="M 613.773438 403.492188 L 595.40625 431.457031 L 619.765625 431.457031 C 635.339844 431.457031 646.519531 429.460938 650.515625 425.863281 C 659.300781 417.875 687.652344 416.675781 697.234375 423.867188 C 702.027344 426.664062 706.421875 433.855469 707.617188 439.445312 L 709.214844 449.433594 L 679.265625 448.234375 C 651.710938 447.4375 646.921875 448.636719 624.957031 460.222656 L 600.996094 473.40625 L 600.597656 495.777344 C 600.199219 516.949219 600.996094 518.945312 617.769531 536.523438 C 634.941406 554.902344 635.738281 555.300781 660.496094 555.300781 C 680.464844 555.300781 687.253906 553.703125 692.84375 547.3125 C 702.027344 536.925781 708.019531 536.925781 704.824219 547.3125 C 702.425781 554.902344 704.023438 555.300781 731.578125 555.300781 L 760.730469 555.300781 L 758.734375 484.988281 L 756.738281 415.078125 L 732.777344 395.101562 L 708.816406 375.527344 L 632.144531 375.527344 Z M 652.910156 391.507812 C 662.492188 387.910156 691.644531 389.109375 698.832031 393.503906 C 700.828125 394.703125 702.828125 393.90625 702.828125 391.109375 C 702.828125 387.910156 704.425781 388.3125 708.019531 392.304688 C 710.414062 395.902344 719.996094 404.691406 728.785156 412.28125 L 745.15625 425.464844 L 744.757812 481.792969 L 744.757812 538.125 L 729.980469 538.523438 C 721.996094 538.921875 714.007812 537.324219 712.808594 535.328125 C 711.210938 532.929688 708.417969 532.128906 706.421875 533.328125 C 704.425781 534.925781 702.828125 530.933594 702.828125 525.339844 C 702.828125 519.347656 704.425781 515.75 706.820312 517.347656 C 709.214844 518.546875 710.8125 516.949219 710.8125 513.753906 C 710.8125 510.160156 712.410156 507.363281 714.007812 507.363281 C 719.597656 507.363281 718.800781 486.988281 712.808594 478.199219 C 709.214844 473.40625 706.421875 470.207031 705.621094 471.007812 C 705.222656 472.207031 701.230469 471.007812 696.835938 468.210938 C 692.445312 465.8125 691.246094 463.417969 693.640625 463.417969 C 700.828125 463.417969 714.808594 450.632812 712.410156 446.636719 C 711.210938 445.039062 713.210938 442.242188 716.402344 441.046875 C 725.589844 437.449219 724.390625 433.054688 710.8125 418.671875 C 701.230469 408.6875 694.839844 405.890625 678.066406 404.292969 C 661.296875 402.695312 656.503906 403.492188 652.113281 409.484375 C 648.917969 414.277344 646.921875 415.078125 646.921875 411.882812 C 646.921875 407.488281 645.722656 407.488281 640.929688 411.480469 C 631.746094 419.074219 629.347656 413.480469 635.339844 399.097656 C 638.132812 391.90625 641.328125 388.3125 642.128906 390.707031 C 642.925781 393.503906 646.519531 393.90625 652.910156 391.507812 Z M 645.722656 483.390625 C 645.324219 493.378906 643.324219 498.574219 640.53125 497.773438 C 636.9375 496.574219 636.9375 498.972656 640.132812 507.363281 C 643.324219 515.351562 645.722656 517.347656 647.71875 514.152344 C 649.714844 510.558594 650.914062 511.355469 650.914062 515.75 C 650.914062 523.339844 666.886719 531.332031 682.0625 531.730469 L 692.84375 531.730469 L 682.859375 535.726562 C 677.269531 538.125 666.089844 539.320312 658.101562 538.523438 C 649.714844 537.722656 642.925781 538.921875 642.527344 541.320312 C 642.527344 543.316406 640.929688 541.320312 638.933594 536.125 C 636.9375 531.332031 633.34375 527.335938 631.347656 527.335938 C 624.957031 527.335938 617.769531 510.957031 617.371094 495.375 C 616.96875 482.992188 618.566406 480.59375 630.945312 474.601562 C 638.535156 471.007812 645.324219 467.8125 645.722656 467.8125 C 646.519531 467.410156 646.519531 474.601562 645.722656 483.390625 Z M 706.820312 492.980469 C 706.820312 504.566406 691.644531 515.351562 675.671875 515.351562 C 661.296875 515.351562 654.90625 508.960938 654.90625 494.578125 C 654.90625 483.390625 654.90625 483.390625 680.863281 483.390625 C 705.621094 483.390625 706.820312 483.792969 706.820312 492.980469 Z M 706.820312 492.980469 "/>
<path style=" stroke:none;fill-rule:nonzero;fill:rgb(0%,0%,0%);fill-opacity:1;" d="M 10.382812 429.859375 C 6.789062 439.046875 7.1875 439.445312 15.574219 439.445312 C 21.164062 439.445312 22.761719 437.449219 21.164062 431.457031 C 18.769531 421.871094 13.578125 421.070312 10.382812 429.859375 Z M 10.382812 429.859375 "/>
<path style=" stroke:none;fill-rule:nonzero;fill:rgb(0%,0%,0%);fill-opacity:1;" d="M 23.960938 427.0625 C 23.960938 428.261719 25.957031 432.257812 28.351562 435.453125 C 31.945312 440.644531 32.347656 440.644531 30.75 435.054688 C 29.152344 430.257812 31.148438 429.058594 38.335938 429.859375 C 43.527344 430.257812 47.921875 429.058594 47.921875 427.460938 C 47.921875 425.464844 42.730469 424.265625 35.941406 424.265625 C 29.550781 424.664062 23.960938 425.863281 23.960938 427.0625 Z M 23.960938 427.0625 "/>
<path style=" stroke:none;fill-rule:nonzero;fill:rgb(0%,0%,0%);fill-opacity:1;" d="M 272.34375 536.125 L 271.546875 551.304688 L 202.863281 552.503906 L 133.777344 553.703125 L 202.863281 554.503906 L 271.546875 555.300781 L 271.546875 582.867188 L 248.785156 584.464844 L 225.625 585.664062 L 248.785156 586.460938 C 265.957031 587.261719 271.546875 588.859375 271.546875 593.253906 C 271.546875 596.449219 273.144531 599.246094 274.742188 599.246094 C 276.738281 599.246094 277.535156 589.660156 276.339844 577.671875 L 274.742188 555.699219 L 293.910156 554.101562 L 313.476562 552.90625 L 294.707031 552.105469 C 276.339844 551.304688 275.9375 551.304688 274.34375 536.125 L 272.746094 521.34375 Z M 272.34375 536.125 "/>
<path style=" stroke:none;fill-rule:nonzero;fill:rgb(0%,0%,0%);fill-opacity:1;" d="M 599.398438 540.121094 C 599 550.90625 598.601562 550.90625 568.25 552.503906 L 537.101562 553.703125 L 568.25 554.503906 L 599 555.300781 L 599.398438 578.074219 C 599.796875 590.855469 600.597656 598.046875 601.796875 594.054688 C 603.394531 588.058594 610.582031 587.261719 680.863281 587.261719 C 751.144531 587.261719 758.335938 588.058594 759.929688 594.054688 C 761.128906 598.046875 761.527344 591.257812 761.527344 579.269531 C 761.527344 566.886719 760.730469 562.890625 759.929688 570.082031 L 758.335938 583.265625 L 602.992188 583.265625 L 602.992188 569.683594 C 602.992188 557.699219 604.589844 555.699219 614.175781 554.101562 L 624.957031 552.503906 L 614.175781 551.707031 C 605.789062 551.304688 602.992188 548.910156 601.796875 540.121094 L 600.199219 529.335938 Z M 599.398438 540.121094 "/>
<path style=" stroke:none;fill-rule:nonzero;fill:rgb(0%,0%,0%);fill-opacity:1;" d="M 961.59375 554.101562 C 968.78125 554.902344 979.566406 554.902344 985.554688 554.101562 C 991.542969 553.304688 985.554688 552.503906 972.375 552.503906 C 959.199219 552.503906 954.40625 553.304688 961.59375 554.101562 Z M 961.59375 554.101562 "/>
<path style=" stroke:none;fill-rule:nonzero;fill:rgb(0%,0%,0%);fill-opacity:1;" d="M 288.71875 579.269531 C 288.71875 591.257812 289.117188 598.046875 290.316406 594.054688 C 291.914062 587.660156 298.300781 586.863281 369.382812 587.261719 C 438.070312 587.660156 446.855469 588.460938 448.453125 594.453125 C 449.648438 598.046875 450.046875 591.257812 450.046875 579.269531 C 450.046875 566.886719 449.25 562.890625 448.453125 570.082031 L 446.855469 583.265625 L 291.914062 583.265625 L 290.316406 570.082031 C 289.515625 562.890625 288.71875 566.886719 288.71875 579.269531 Z M 288.71875 579.269531 "/>
<path style=" stroke:none;fill-rule:nonzero;fill:rgb(0%,0%,0%);fill-opacity:1;" d="M 1130.113281 571.28125 L 1130.113281 583.265625 L 1061.429688 584.464844 L 992.34375 585.664062 L 1061.027344 586.460938 C 1122.527344 587.261719 1129.714844 588.058594 1131.3125 594.054688 C 1132.507812 598.046875 1133.308594 591.65625 1133.707031 580.070312 C 1133.707031 568.882812 1133.308594 559.296875 1132.109375 559.296875 C 1130.910156 559.296875 1130.113281 564.488281 1130.113281 571.28125 Z M 1130.113281 571.28125 "/>
<path style=" stroke:none;fill-rule:nonzero;fill:rgb(0%,0%,0%);fill-opacity:1;" d="M 779.097656 567.6875 C 779.097656 571.28125 777.503906 580.070312 776.304688 586.863281 C 774.707031 594.851562 775.105469 599.246094 778.300781 599.246094 C 780.695312 599.246094 782.691406 596.847656 782.691406 593.652344 C 782.691406 589.660156 788.285156 587.261719 799.863281 586.0625 L 816.636719 584.464844 L 799.863281 584.066406 C 785.089844 583.265625 783.09375 582.066406 781.496094 572.082031 C 780.695312 566.089844 779.5 564.089844 779.097656 567.6875 Z M 779.097656 567.6875 "/>
<path style=" stroke:none;fill-rule:nonzero;fill:rgb(0%,0%,0%);fill-opacity:1;" d="M 942.425781 572.878906 C 942.425781 582.066406 940.828125 582.867188 919.664062 584.464844 L 896.503906 585.664062 L 919.664062 586.460938 C 936.835938 587.261719 942.425781 588.859375 942.425781 593.253906 C 942.425781 596.449219 944.421875 599.246094 946.421875 599.246094 C 948.816406 599.246094 950.414062 592.054688 950.414062 583.664062 C 950.414062 574.875 948.816406 566.488281 946.421875 565.289062 C 944.023438 564.089844 942.425781 567.285156 942.425781 572.878906 Z M 942.425781 572.878906 "/>
<path style=" stroke:none;fill-rule:nonzero;fill:rgb(0%,0%,0%);fill-opacity:1;" d="M 148.152344 580.871094 C 141.363281 588.859375 143.359375 591.257812 159.335938 593.253906 C 170.117188 594.851562 171.714844 593.652344 171.714844 585.265625 C 171.714844 573.679688 165.722656 572.082031 161.730469 582.066406 C 158.933594 588.859375 158.535156 588.859375 156.140625 582.066406 C 153.742188 575.277344 152.945312 574.875 148.152344 580.871094 Z M 148.152344 580.871094 "/>
<path style=" stroke:none;fill-rule:nonzero;fill:rgb(0%,0%,0%);fill-opacity:1;" d="M 175.707031 580.070312 C 175.707031 582.867188 177.304688 587.660156 179.300781 590.855469 C 183.691406 597.648438 189.285156 589.660156 186.089844 581.269531 C 183.292969 574.078125 175.707031 573.277344 175.707031 580.070312 Z M 175.707031 580.070312 "/>
<path style=" stroke:none;fill-rule:nonzero;fill:rgb(0%,0%,0%);fill-opacity:1;" d="M 196.871094 585.265625 C 194.476562 590.855469 194.074219 594.453125 195.671875 593.253906 C 197.671875 592.054688 200.066406 592.855469 201.664062 595.25 C 205.65625 601.644531 211.648438 595.652344 211.648438 584.863281 C 211.648438 572.480469 202.863281 572.480469 196.871094 585.265625 Z M 196.871094 585.265625 "/>
<path style=" stroke:none;fill-rule:nonzero;fill:rgb(0%,0%,0%);fill-opacity:1;" d="M 838.601562 581.269531 C 832.210938 588.859375 836.203125 594.054688 848.582031 594.054688 C 853.773438 594.054688 857.367188 592.453125 856.171875 590.457031 C 854.574219 588.058594 857.769531 588.460938 862.558594 591.257812 C 872.542969 596.449219 879.730469 590.855469 875.738281 580.46875 C 873.34375 574.078125 868.152344 573.679688 864.15625 579.671875 C 862.558594 582.867188 860.5625 582.46875 858.167969 578.871094 C 855.769531 574.476562 854.574219 574.875 852.175781 580.46875 C 850.980469 584.066406 848.183594 586.0625 846.1875 584.863281 C 844.191406 583.664062 843.390625 580.871094 844.589844 578.871094 C 848.183594 573.277344 844.191406 574.476562 838.601562 581.269531 Z M 838.601562 581.269531 "/>
</g>
</svg>
