<?xml version="1.0" standalone="no"?>
<!DOCTYPE svg PUBLIC "-//W3C//DTD SVG 20010904//EN"
 "http://www.w3.org/TR/2001/REC-SVG-20010904/DTD/svg10.dtd">
<svg version="1.0" xmlns="http://www.w3.org/2000/svg"
 width="300.000000pt" height="159.000000pt" viewBox="0 0 300.000000 159.000000"
 preserveAspectRatio="xMidYMid meet">
<metadata>
Created by potrace 1.10, written by Peter Selinger 2001-2011
</metadata>
<g transform="translate(0.000000,159.000000) scale(0.100000,-0.100000)"
fill="#000000" stroke="none">
<path d="M371 1532 c-13 -24 -12 -25 47 -24 18 0 32 -5 32 -11 0 -7 5 -4 11 6
12 20 6 47 -11 47 -5 0 -10 -8 -11 -17 0 -16 -1 -16 -8 0 -6 18 -8 18 -21 2
-13 -16 -14 -16 -20 1 -6 17 -8 17 -19 -4z"/>
<path d="M502 1526 c2 -15 8 -26 13 -26 15 0 12 43 -3 48 -10 3 -13 -4 -10
-22z"/>
<path d="M2371 1503 l-1 -53 -37 -1 c-21 0 -423 -1 -893 -2 l-855 -1 798 -3
797 -3 0 -70 0 -70 -187 -3 -188 -2 188 -3 187 -2 0 -190 0 -190 70 0 70 0 0
265 0 265 25 0 25 0 3 -197 2 -198 3 198 2 197 75 0 c41 0 75 -4 75 -8 0 -5
-11 -35 -24 -68 -13 -32 -45 -117 -70 -189 -26 -71 -51 -139 -56 -150 -4 -11
-15 -41 -24 -67 l-15 -48 68 0 68 0 13 45 13 45 86 0 87 0 15 -42 16 -43 69
-6 c38 -3 70 -4 72 -4 3 2 -147 398 -177 468 -12 27 -21 53 -21 58 0 5 40 9
90 9 l90 0 3 -222 2 -223 3 222 c2 201 4 222 20 226 15 4 15 5 -2 6 -16 1 -18
7 -14 46 3 25 2 45 -3 45 -5 0 -9 -4 -9 -10 0 -5 -26 -11 -57 -12 l-58 -1 55
-6 c50 -5 55 -8 58 -32 l3 -26 -117 -5 c-64 -3 -165 -3 -225 0 l-109 5 0 28
c0 27 3 28 53 32 l52 3 -52 2 c-40 2 -53 6 -56 20 -3 9 -5 -7 -6 -35z m-93
-115 c0 -13 1 -65 2 -117 0 -51 -1 -96 -4 -99 -3 -3 -1 -11 5 -18 7 -8 7 -14
-1 -19 -5 -3 -10 -13 -10 -21 0 -9 5 -12 12 -8 7 5 8 3 3 -6 -4 -7 -7 -42 -6
-77 1 -42 -2 -63 -10 -63 -6 0 -8 -7 -5 -15 5 -14 3 -14 -15 -1 -22 15 -60 64
-41 52 8 -5 12 2 12 19 0 18 -4 24 -12 19 -10 -6 -10 -4 -2 7 15 19 15 140 1
158 -10 12 -9 13 6 8 12 -5 16 -3 11 5 -4 6 -6 35 -5 65 1 38 -2 52 -10 48 -7
-5 -6 1 2 16 7 13 12 32 11 41 -2 11 6 18 25 21 15 2 29 5 29 6 1 0 2 -9 2
-21z m346 9 c3 3 6 -5 6 -18 0 -14 4 -29 9 -34 4 -6 16 -32 26 -60 10 -27 22
-55 27 -61 4 -6 5 -14 1 -17 -3 -4 1 -9 10 -13 9 -3 13 -12 11 -19 -3 -7 4
-32 15 -55 11 -24 18 -47 15 -51 -3 -5 -1 -9 5 -9 6 0 7 -8 4 -17 -5 -12 -2
-15 8 -11 10 4 14 -2 15 -21 0 -14 4 -33 8 -42 6 -13 1 -18 -23 -21 -24 -4
-31 -1 -31 12 0 25 -40 72 -56 66 -7 -3 -14 0 -16 6 -2 5 -34 11 -71 12 -53 1
-67 -2 -67 -14 0 -11 -2 -12 -8 -2 -7 9 -13 8 -27 -8 -10 -11 -15 -20 -12 -20
4 0 -2 -9 -14 -21 -12 -12 -18 -27 -15 -37 4 -12 0 -10 -13 5 -10 12 -20 20
-23 18 -2 -2 -4 6 -4 18 0 12 2 24 6 27 12 10 39 93 33 103 -3 6 -1 7 4 4 6
-4 14 0 17 9 3 8 2 13 -3 9 -5 -3 -1 12 9 32 10 21 31 73 46 115 16 42 31 75
35 73 3 -3 4 8 2 23 -3 19 -2 23 5 14 7 -11 10 -11 15 3 5 12 11 14 26 6 10
-6 21 -7 25 -4z"/>
<path d="M2561 1256 c-23 -25 -28 -41 -8 -30 6 4 0 -6 -14 -22 -35 -37 -46
-86 -25 -107 9 -9 16 -20 16 -26 0 -7 24 -11 60 -11 49 0 58 3 54 15 -5 11 -2
13 12 8 12 -4 15 -3 10 5 -4 7 -3 12 2 12 5 0 9 7 9 15 0 8 -5 11 -10 8 -6 -4
-8 0 -4 10 8 22 -21 104 -40 111 -26 10 -26 0 -4 -65 12 -35 21 -67 21 -71 0
-4 -24 -8 -54 -8 l-54 0 27 80 c24 73 28 80 49 77 17 -3 20 -1 13 6 -18 18
-39 16 -60 -7z"/>
<path d="M2517 1544 c-13 -13 -7 -44 8 -44 8 0 15 7 15 15 0 8 0 18 1 22 1 10
-16 15 -24 7z"/>
<path d="M2594 1538 c-4 -6 -2 -14 4 -16 7 -2 10 -8 6 -13 -3 -5 -1 -9 4 -9 6
0 13 7 16 16 11 28 -15 47 -30 22z"/>
<path d="M2653 1533 c-4 -10 -11 -21 -17 -25 -6 -4 1 -8 15 -8 32 0 38 6 32
31 -7 24 -22 25 -30 2z"/>
<path d="M180 1498 l0 -48 -55 0 c-30 0 -55 -4 -55 -10 0 -5 5 -10 10 -10 6 0
11 -44 12 -107 l2 -108 3 105 c4 111 8 120 55 120 26 0 27 -2 31 -62 l3 -63 2
62 2 62 63 4 62 3 -62 2 c-63 2 -63 2 -63 32 0 30 0 30 63 32 l62 2 -60 3
c-33 2 -63 10 -67 16 -4 7 -8 -9 -8 -35z"/>
<path d="M680 1530 c0 -5 -26 -11 -57 -13 l-58 -3 58 -2 c55 -2 57 -3 57 -29
0 -35 6 -27 13 20 3 20 2 37 -4 37 -5 0 -9 -4 -9 -10z"/>
<path d="M255 1373 l-73 -68 -1 -121 -1 -122 78 -76 77 -76 116 0 116 0 51 59
52 59 -49 36 -50 35 -33 -44 c-32 -43 -35 -44 -89 -45 -55 0 -58 1 -93 44 -34
42 -36 48 -36 118 0 71 2 76 33 106 30 29 39 32 92 32 59 -1 60 -1 94 -46 l34
-45 46 43 c25 24 47 44 49 45 2 1 -20 31 -49 67 l-53 66 -118 0 -119 0 -74
-67z m290 19 c-3 -9 -3 -13 1 -9 9 9 54 -32 54 -49 0 -7 8 -15 18 -17 13 -4
12 -5 -5 -6 -12 0 -23 -6 -25 -12 -2 -6 -14 -5 -33 5 -17 9 -29 18 -27 21 8
17 1 26 -13 15 -10 -9 -15 -9 -15 -1 0 7 -22 11 -60 11 -33 0 -60 -4 -60 -10
0 -5 -4 -9 -8 -7 -5 1 -25 -14 -45 -33 -26 -24 -33 -36 -24 -42 9 -6 9 -8 -1
-8 -23 0 -31 -43 -13 -70 9 -14 11 -21 4 -17 -8 5 -13 3 -13 -7 0 -8 5 -18 11
-22 7 -4 8 -9 0 -17 -12 -12 15 -71 29 -62 6 4 10 -4 10 -17 0 -25 34 -53 52
-42 7 5 9 2 5 -9 -5 -14 3 -16 59 -14 35 1 64 6 64 11 0 5 2 7 5 4 3 -3 20 8
37 23 24 24 33 27 45 18 12 -10 8 -18 -22 -49 -19 -20 -32 -40 -28 -45 5 -5 1
-4 -7 2 -8 6 -41 10 -75 8 -33 -2 -67 1 -76 6 -10 5 -21 4 -28 -4 -10 -9 -11
-8 -5 8 7 18 6 18 -9 6 -10 -8 -17 -9 -17 -3 0 6 -22 32 -50 58 -27 25 -47 50
-44 55 3 5 -3 6 -12 2 -12 -4 -15 -3 -10 6 10 16 10 156 0 172 -4 8 -3 9 4 5
7 -4 12 -1 12 8 0 9 -6 16 -12 17 -9 0 -8 2 1 6 8 3 36 28 62 54 30 31 50 44
53 36 4 -7 5 -3 2 9 -3 20 1 21 106 21 97 1 109 -1 103 -15z"/>
<path d="M1603 1293 c37 -2 96 -2 130 0 34 2 4 3 -68 3 -71 0 -99 -1 -62 -3z"/>
<path d="M690 1143 l1 -138 44 -47 c43 -47 44 -48 105 -48 52 0 65 4 82 23
l20 22 -5 -22 c-5 -22 -2 -23 49 -23 l54 0 0 185 0 185 -61 0 -61 0 5 -119 c5
-119 5 -119 -22 -145 l-27 -25 -32 19 -32 20 0 125 0 125 -60 0 -60 0 0 -137z
m84 95 c-11 -18 -4 -90 9 -107 9 -12 9 -13 0 -7 -9 5 -13 -1 -13 -19 0 -16 4
-24 11 -19 8 5 8 1 0 -14 -11 -21 -5 -52 10 -52 5 0 8 -6 6 -12 -1 -7 4 -12
11 -11 6 2 12 -3 12 -11 0 -7 10 -16 22 -19 28 -8 22 -14 -19 -20 -22 -4 -33
-1 -33 7 0 14 -36 46 -53 46 -8 0 -7 4 3 10 13 8 9 13 -10 12 -3 0 -4 29 -3
66 1 37 -2 72 -9 79 -8 10 -7 12 3 8 10 -4 15 1 15 14 0 12 -6 17 -16 14 -8
-3 -1 7 15 21 32 27 51 34 39 14z m245 -49 c4 -12 2 -12 -12 -1 -14 12 -15 11
-7 -18 5 -17 6 -38 3 -46 -3 -8 1 -22 8 -31 12 -14 12 -16 0 -8 -11 6 -13 4
-8 -7 3 -9 0 -21 -6 -27 -8 -8 -8 -11 1 -11 9 0 11 -10 6 -36 -5 -27 -4 -35 5
-30 20 13 12 0 -16 -25 -15 -13 -22 -17 -15 -8 10 14 10 17 0 16 -38 -1 -48 4
-48 27 0 13 5 26 11 28 5 2 11 11 13 20 1 10 5 21 9 24 11 12 8 49 -5 63 -7 8
-8 11 -2 8 13 -7 13 91 -1 113 -5 8 6 3 25 -11 19 -14 36 -32 39 -40z"/>
<path d="M1087 1273 c-4 -3 -7 -87 -7 -185 l0 -178 60 0 60 0 0 94 c0 88 2 97
26 126 20 23 33 30 49 26 21 -5 23 -2 27 57 3 34 4 64 2 66 -2 2 -25 -15 -51
-38 l-48 -41 -3 40 -3 40 -53 0 c-29 0 -56 -3 -59 -7z m78 -63 c0 -8 10 -14
23 -15 12 -1 28 -7 35 -14 9 -10 9 -11 -3 -7 -11 4 -23 -10 -41 -48 -24 -50
-25 -56 -11 -70 11 -11 12 -16 4 -16 -7 0 -12 -11 -12 -25 0 -14 5 -25 12 -25
6 0 1 -11 -12 -25 -13 -14 -27 -25 -30 -25 -4 0 -7 32 -7 71 -1 38 -4 73 -7
76 -10 10 -7 25 4 18 6 -3 10 3 10 14 0 12 -6 21 -12 22 -8 0 -9 2 -2 5 6 2 9
17 6 33 -2 16 1 32 8 36 8 5 8 11 -2 23 -12 16 -11 16 12 1 14 -9 25 -22 25
-29z"/>
<path d="M1372 1250 c-41 -30 -42 -31 -42 -90 l0 -59 63 -30 c34 -16 79 -36
100 -45 20 -8 37 -21 37 -27 0 -9 3 -10 11 -2 17 17 -28 57 -109 99 -71 37
-82 47 -62 59 6 3 10 16 10 29 0 13 8 30 19 40 16 15 19 15 31 1 10 -12 10
-15 -4 -15 -9 0 -16 -3 -17 -7 0 -5 -2 -20 -4 -35 -3 -23 1 -29 20 -34 14 -3
23 -10 22 -14 -1 -4 1 -9 5 -9 5 -1 23 -10 42 -21 25 -13 36 -16 40 -7 3 9 5
8 5 -1 1 -18 24 -39 39 -36 7 1 8 0 2 -3 -5 -2 -10 -15 -10 -28 0 -12 -6 -28
-14 -35 -8 -6 -13 -17 -10 -24 4 -10 -2 -12 -20 -9 -14 3 -23 9 -20 14 3 5 10
6 16 3 8 -5 9 -1 5 10 -4 10 -7 21 -7 26 0 5 -14 3 -31 -3 -26 -10 -35 -9 -67
10 -36 20 -39 20 -65 5 -18 -11 -27 -25 -27 -42 0 -39 52 -60 149 -60 l79 0
29 48 c19 30 29 60 29 82 -1 34 -4 37 -86 77 -47 23 -89 44 -95 46 -6 3 -3 12
6 22 16 16 19 15 55 -7 l38 -25 43 30 43 31 -50 33 c-41 27 -59 33 -103 33
-44 0 -62 -5 -95 -30z"/>
<path d="M1765 1271 c-11 -5 -42 -32 -69 -59 l-49 -51 2 -78 2 -78 47 -47 46
-48 87 0 87 0 56 58 56 57 0 65 0 66 -60 59 c-59 58 -61 59 -122 62 -35 1 -72
-1 -83 -6z m179 -85 c50 -50 51 -52 46 -101 -4 -35 -10 -51 -21 -53 -11 -2
-18 6 -21 23 -3 14 -2 25 2 25 11 0 7 43 -5 56 -59 67 -66 72 -111 70 -53 -1
-105 -48 -111 -101 -5 -46 13 -105 33 -105 8 0 13 -6 12 -12 -2 -7 5 -12 15
-12 22 2 22 -10 0 -27 -9 -8 -14 -9 -10 -3 4 7 -2 14 -14 17 -12 3 -18 10 -14
17 3 6 3 9 -2 8 -27 -7 -49 14 -51 49 -2 21 -5 39 -7 41 -2 3 0 13 5 22 7 13
6 20 -5 24 -10 4 0 20 38 58 51 52 53 53 111 54 59 1 60 1 110 -50z m-51 -41
c57 -50 17 -155 -59 -155 -64 0 -99 107 -52 157 28 30 75 30 111 -2z m72 -125
c11 -5 14 -9 7 -9 -8 -1 -22 -11 -33 -23 -15 -19 -18 -20 -19 -6 0 9 5 20 10
23 6 4 8 11 5 16 -7 11 3 11 30 -1z"/>
<path d="M24 1165 c-3 -8 -3 -19 1 -25 11 -18 25 -11 25 15 0 27 -17 34 -26
10z"/>
<path d="M62 1155 c2 -16 6 -21 12 -15 13 13 29 13 21 0 -3 -5 -2 -10 3 -10
15 0 24 32 13 43 -7 7 -16 5 -27 -4 -12 -9 -15 -10 -10 -1 4 6 2 12 -3 12 -6
0 -10 -11 -9 -25z"/>
<path d="M143 1168 c-21 -27 -21 -34 -2 -35 14 -1 18 4 17 23 -3 28 -3 28 -15
12z"/>
<path d="M92 1003 c-1 -48 -6 -83 -12 -83 -5 0 -10 -4 -10 -10 0 -5 25 -10 55
-10 l55 0 0 -345 0 -345 -27 0 c-48 0 -52 9 -56 115 l-3 100 -2 -108 c-1 -69
-6 -106 -12 -102 -5 3 -10 1 -10 -4 0 -7 23 -11 55 -11 l55 0 1 -57 c1 -32 3
-50 6 -41 3 13 18 18 66 21 l62 3 -62 2 -63 2 0 35 0 35 70 0 70 0 0 85 0 85
104 0 103 0 72 79 71 79 0 80 0 80 -79 66 -79 66 -166 0 -166 0 0 40 0 39 63
4 62 3 -62 2 -62 2 -4 63 -3 62 -2 -63 -2 -63 -37 3 -38 3 -6 85 -5 85 -2 -82z
m174 -235 c-7 12 7 14 144 16 30 1 61 5 69 10 10 7 12 6 6 -4 -6 -10 -3 -12
13 -8 15 4 22 2 22 -7 0 -8 9 -16 19 -20 11 -3 38 -26 61 -51 25 -27 46 -42
53 -37 8 4 7 1 -1 -10 -8 -9 -12 -26 -11 -39 2 -13 0 -28 -4 -35 -4 -6 -3 -15
3 -18 11 -7 -21 -51 -87 -120 -37 -38 -41 -40 -103 -41 -36 0 -72 -3 -80 -5
-8 -3 -12 -4 -7 -2 4 3 7 9 7 14 0 14 -33 -3 -62 -33 -32 -33 -36 -50 -10 -41
15 6 16 5 2 -11 -8 -10 -14 -32 -15 -50 0 -26 -4 -31 -25 -31 -14 0 -32 -4
-40 -10 -11 -7 -11 -3 3 18 10 16 13 27 6 27 -7 0 -10 32 -8 99 2 71 -1 104
-11 115 -11 14 -11 16 1 11 10 -4 15 5 17 31 2 34 1 35 -15 23 -16 -13 -17
-12 -4 4 10 12 13 43 12 101 -1 53 2 87 9 91 8 5 6 14 -7 28 -16 18 -14 18 16
-3 19 -13 31 -19 27 -12z"/>
<path d="M352 730 c-56 -23 -65 -43 -63 -136 2 -86 13 -130 32 -119 5 4 9 0 9
-8 0 -22 79 -28 110 -8 23 14 24 14 12 0 -11 -14 -9 -16 13 -11 14 2 22 9 18
15 -3 6 -1 7 5 3 14 -8 43 19 76 72 22 35 23 39 7 50 -14 10 -13 11 4 5 16 -5
18 -3 8 7 -6 7 -9 18 -7 24 6 15 -65 98 -77 90 -5 -3 -9 -1 -9 5 0 12 -94 9
-125 -4 -20 -8 -20 -8 0 8 23 18 20 20 -13 7z m160 -67 c40 -38 39 -96 -2
-140 -28 -32 -33 -33 -105 -33 l-75 0 0 100 0 100 77 0 c70 0 79 -2 105 -27z"/>
<path d="M1638 903 c17 -2 47 -2 65 0 17 2 3 4 -33 4 -36 0 -50 -2 -32 -4z"/>
<path d="M2003 903 c32 -2 81 -2 110 0 29 2 3 3 -58 3 -60 0 -84 -1 -52 -3z"/>
<path d="M2538 903 c28 -2 76 -2 105 0 28 2 5 3 -53 3 -58 0 -81 -1 -52 -3z"/>
<path d="M466 883 c-12 -12 -6 -43 9 -43 8 0 15 9 15 19 0 21 -13 34 -24 24z"/>
<path d="M2372 778 l-2 -117 -52 -4 -53 -3 53 -2 52 -2 0 -35 c0 -19 -2 -35
-6 -35 -3 0 -35 18 -71 40 l-66 39 -31 -21 c-17 -12 -48 -35 -68 -51 l-38 -29
0 45 0 45 -70 4 -69 3 -3 -228 -3 -227 140 2 c77 1 110 3 73 5 l-68 4 0 159 0
160 53 0 c43 0 58 -5 76 -24 21 -22 22 -30 19 -165 l-3 -141 68 0 67 0 0 173
c0 94 3 195 6 224 l7 52 56 4 56 3 -57 2 -57 2 -4 118 -3 117 -2 -117z m-326
-157 c-3 -5 2 -23 10 -41 12 -23 13 -35 5 -43 -7 -7 -7 -14 0 -24 7 -8 8 -13
1 -13 -5 0 -12 -7 -15 -14 -4 -11 -1 -13 11 -9 14 6 15 4 4 -9 -15 -18 -14
-107 2 -127 8 -11 8 -13 0 -8 -8 4 -13 -4 -16 -22 -3 -20 -1 -27 8 -24 10 4
10 0 1 -20 -6 -14 -13 -24 -15 -22 -2 2 -14 0 -26 -5 -25 -9 -25 -11 -26 84 0
33 -5 66 -12 73 -9 11 -7 12 7 7 14 -6 16 -4 10 6 -4 7 -8 43 -7 79 0 36 -4
71 -10 79 -6 7 -7 12 -2 11 20 -4 28 2 15 10 -11 7 -7 13 20 24 42 19 41 19
35 8z m229 -32 c22 -14 34 -27 31 -36 -4 -11 -1 -11 14 -3 14 7 20 7 20 0 0
-5 -3 -10 -7 -10 -5 0 -6 -34 -3 -76 3 -41 1 -82 -3 -90 -6 -10 -3 -12 10 -8
16 5 16 4 3 -8 -16 -14 -20 -95 -5 -118 5 -9 3 -11 -6 -6 -8 3 -22 9 -31 12
-19 7 -21 14 -18 53 1 17 -2 21 -12 15 -10 -6 -11 -5 -1 8 15 17 15 96 0 105
-5 3 -4 9 3 13 15 9 2 60 -16 60 -8 0 -11 6 -8 15 4 9 -7 22 -31 37 l-38 22
23 18 c28 23 31 23 75 -3z"/>
<path d="M2832 863 c-2 -31 -4 -32 -49 -36 l-48 -3 48 -2 47 -2 2 -122 c1 -68
3 -106 5 -86 3 24 10 38 21 41 15 4 15 5 0 6 -16 1 -18 12 -18 80 0 67 3 80
18 84 15 4 15 5 0 6 -11 1 -18 12 -21 34 l-4 32 -1 -32z"/>
<path d="M228 863 c18 -2 45 -2 60 0 15 2 0 4 -33 4 -33 0 -45 -2 -27 -4z"/>
<path d="M2579 823 c-24 -30 -79 -111 -79 -117 0 -3 24 -6 54 -6 30 0 56 -4
58 -8 2 -5 29 27 60 70 l58 78 -69 0 c-53 0 -71 -4 -82 -17z m51 -45 c0 -10
-4 -18 -10 -18 -5 0 -10 -7 -10 -15 0 -13 -3 -13 -13 -3 -8 6 -12 21 -9 33 5
26 42 29 42 3z"/>
<path d="M90 820 c-14 -4 -19 -8 -12 -9 9 -1 13 -33 14 -118 l2 -118 3 109 c2
61 8 115 14 122 6 7 23 15 37 17 26 4 26 4 -3 5 -16 0 -41 -4 -55 -8z"/>
<path d="M2595 660 c-3 -5 -23 -10 -45 -10 -35 0 -41 -5 -88 -67 l-51 -68 61
-3 c44 -2 65 1 77 12 20 18 102 22 132 6 11 -6 19 -21 19 -35 0 -24 -2 -25
-70 -25 -58 0 -80 -5 -135 -32 l-65 -32 0 -56 c0 -50 4 -59 41 -103 l41 -47
67 0 c55 0 71 4 86 20 23 26 35 26 28 0 -5 -19 0 -20 71 -20 l76 0 0 178 -1
177 -69 48 c-60 41 -75 47 -120 47 -32 0 -49 4 -45 10 3 6 4 10 1 10 -3 0 -8
-4 -11 -10z m80 -48 c17 4 25 1 25 -8 0 -8 5 -14 12 -14 6 0 26 -11 44 -25 18
-14 38 -25 44 -25 6 0 8 -5 4 -12 -11 -17 -4 -152 8 -157 7 -2 7 -5 0 -10 -12
-7 -19 -92 -9 -107 4 -7 -10 -11 -38 -12 -24 -1 -47 2 -50 8 -4 6 -11 8 -16 5
-5 -4 -9 8 -9 25 0 18 4 29 10 25 6 -3 10 -1 10 5 0 6 4 9 9 6 11 -7 11 44 -1
67 -5 10 -13 15 -19 12 -19 -12 -9 62 11 80 26 24 25 47 -3 71 -35 31 -52 40
-42 23 6 -11 5 -12 -6 -1 -14 13 -99 17 -99 4 0 -5 -6 -9 -12 -9 -7 0 -21 -4
-30 -8 -24 -10 -23 10 2 42 11 14 20 20 20 14 0 -7 5 -9 12 -5 22 14 73 21 85
11 7 -5 24 -7 38 -5z m-38 -184 c12 -1 28 -28 17 -28 -3 0 -18 7 -35 15 -33
17 -49 13 -49 -13 0 -13 -2 -14 -8 -4 -6 9 -12 5 -20 -13 -7 -15 -10 -31 -7
-36 4 -5 1 -9 -5 -9 -8 0 -8 -6 0 -20 6 -11 16 -17 22 -14 7 5 9 2 5 -9 -3 -9
1 -18 11 -23 24 -10 29 -11 59 -13 45 -2 15 -15 -48 -21 -45 -4 -58 -3 -55 7
3 6 -3 15 -13 18 -23 7 -39 40 -43 88 -3 25 0 37 9 37 17 0 83 32 83 41 0 6
21 5 77 -3z m58 -70 c-10 -34 -43 -58 -79 -58 -39 0 -56 15 -56 52 l0 28 71 0
c68 0 70 -1 64 -22z"/>
<path d="M1424 631 c-21 -15 -48 -38 -58 -50 -30 -33 -39 -26 -33 24 l7 45
-70 0 -70 0 0 -219 0 -220 -32 -4 c-18 -2 13 -5 69 -5 l103 -2 -3 132 -2 132
68 33 67 33 0 60 0 59 43 4 42 4 -46 1 c-37 2 -54 -4 -85 -27z m-129 -23 c-3
-7 3 -24 13 -38 12 -19 27 -25 54 -26 21 -1 35 2 33 6 -3 4 2 10 10 14 16 6
19 -2 7 -20 -9 -14 -66 -29 -57 -14 3 5 1 10 -4 10 -6 0 -11 -11 -11 -25 0
-14 -3 -24 -7 -23 -5 2 -10 -1 -12 -7 -2 -5 -11 -15 -20 -22 -11 -9 -12 -12
-3 -13 8 0 10 -5 5 -12 -12 -20 -14 -86 -3 -93 8 -5 7 -12 -1 -22 -10 -11 -10
-16 0 -23 9 -5 10 -10 2 -14 -6 -4 -11 -16 -11 -27 0 -11 -4 -17 -10 -14 -5 3
-19 1 -31 -6 -17 -9 -20 -8 -13 2 11 18 4 121 -9 138 -8 10 -8 13 -1 8 17 -10
18 121 2 141 -8 10 -8 13 -2 9 7 -4 14 1 17 12 3 13 1 18 -9 14 -10 -4 -11 0
-1 20 6 14 17 23 23 20 7 -2 15 0 19 6 9 15 25 14 20 -1z"/>
<path d="M766 580 l-46 -70 65 0 c49 0 67 4 71 15 4 10 21 15 53 15 52 0 75
-13 86 -47 6 -22 4 -23 -69 -23 -65 0 -85 -5 -141 -32 l-65 -32 0 -56 c1 -51
4 -59 45 -102 l43 -48 70 0 c64 0 72 2 91 26 12 15 21 37 21 49 0 13 10 27 23
34 18 9 18 11 2 6 -20 -5 -20 -5 -1 10 17 12 18 20 10 43 -6 15 -16 26 -22 25
-21 -5 -14 61 8 75 11 7 20 20 20 30 -1 21 -25 54 -33 45 -4 -3 -7 2 -7 13 0
17 -8 20 -65 22 -57 3 -65 1 -66 -15 0 -10 -3 -13 -6 -6 -3 10 -9 10 -23 1
-26 -17 -37 -2 -17 20 10 10 17 23 17 28 0 12 129 12 148 1 7 -5 12 -4 12 3 0
6 22 -11 50 -38 27 -27 53 -46 56 -43 4 3 4 0 0 -7 -4 -7 -9 -49 -9 -93 -2
-66 0 -78 13 -74 13 4 13 4 0 -7 -15 -13 -20 -84 -7 -105 7 -11 -64 -4 -79 8
-15 12 -24 1 -24 -28 0 -22 3 -23 70 -23 l70 0 0 174 0 173 -59 52 -59 51
-100 0 -99 0 -47 -70z m194 -175 c0 -2 -11 0 -24 5 -13 5 -33 6 -45 3 -12 -3
-21 -1 -21 6 0 6 8 8 18 4 15 -6 16 -5 2 12 -13 16 -10 15 28 -4 23 -12 42
-23 42 -26z m-34 -25 c61 0 64 -1 64 -24 0 -31 -34 -56 -76 -56 -41 0 -51 14
-57 80 -2 30 -2 43 0 28 4 -27 6 -28 69 -28z m-90 13 c-3 -16 -8 -37 -11 -49
-8 -33 34 -73 85 -83 l45 -8 -38 -8 c-20 -4 -48 -5 -62 -3 -14 3 -25 1 -25 -3
0 -5 -16 9 -36 31 -26 29 -35 47 -33 67 2 15 -1 34 -6 42 -6 11 -4 13 8 8 9
-3 19 -2 23 4 5 9 37 26 53 28 2 1 1 -11 -3 -26z"/>
<path d="M1537 580 l-46 -70 61 0 c39 0 67 5 77 14 22 20 93 23 117 5 12 -7
23 -25 26 -39 l4 -25 -75 3 c-69 2 -81 -1 -136 -30 l-60 -33 -1 -56 c-1 -53 1
-58 43 -102 43 -46 45 -47 107 -47 50 0 67 4 81 20 23 26 38 26 30 0 -6 -19
-2 -20 67 -20 l73 0 -5 176 -5 175 -60 50 -60 49 -96 0 -96 0 -46 -70z m98 30
c24 9 97 6 115 -5 5 -3 10 -1 10 6 0 8 4 7 13 -3 6 -9 30 -31 52 -50 l41 -33
-1 -141 0 -141 -37 -1 c-20 -1 -40 3 -43 8 -4 6 -11 8 -16 5 -5 -4 -9 6 -9 20
0 15 4 24 10 20 6 -3 10 1 10 9 0 9 4 16 8 16 14 0 12 51 -3 73 -9 12 -16 20
-18 18 -1 -3 -11 0 -22 7 -11 6 -14 12 -8 12 18 0 53 32 47 42 -3 4 2 11 10
14 23 9 20 20 -14 56 -24 25 -40 32 -82 36 -42 4 -54 2 -65 -13 -8 -12 -13
-14 -13 -6 0 11 -3 11 -15 1 -23 -19 -29 -5 -14 31 7 18 15 27 17 21 2 -7 11
-8 27 -2z m-18 -230 c-1 -25 -6 -38 -13 -36 -9 3 -9 -3 -1 -24 8 -20 14 -25
19 -17 5 9 8 7 8 -4 0 -19 40 -39 78 -40 l27 0 -25 -10 c-14 -6 -42 -9 -62 -7
-21 2 -38 -1 -39 -7 0 -5 -4 0 -9 13 -5 12 -14 22 -19 22 -16 0 -34 41 -35 80
-1 31 3 37 34 52 19 9 36 17 37 17 2 1 2 -17 0 -39z m153 -24 c0 -29 -38 -56
-78 -56 -36 0 -52 16 -52 52 0 28 0 28 65 28 62 0 65 -1 65 -24z"/>
<path d="M26 514 c-9 -23 -8 -24 13 -24 14 0 18 5 14 20 -6 24 -19 26 -27 4z"/>
<path d="M60 521 c0 -3 5 -13 11 -21 9 -13 10 -13 6 1 -4 12 1 15 19 13 13 -1
24 2 24 6 0 5 -13 8 -30 8 -16 -1 -30 -4 -30 -7z"/>
<path d="M682 248 l-2 -38 -172 -3 -173 -3 173 -2 172 -2 0 -35 0 -34 -57 -4
-58 -3 58 -2 c43 -2 57 -6 57 -17 0 -8 4 -15 8 -15 5 0 7 24 4 54 l-4 55 48 4
49 3 -47 2 c-46 2 -47 2 -51 40 l-4 37 -1 -37z"/>
<path d="M1501 238 c-1 -27 -2 -27 -78 -31 l-78 -3 78 -2 77 -2 1 -57 c1 -32
3 -50 6 -40 4 15 22 17 198 17 176 0 194 -2 198 -17 3 -10 4 7 4 37 0 31 -2
41 -4 23 l-4 -33 -195 0 -194 0 0 34 c0 30 4 35 28 39 l27 4 -27 2 c-21 1 -28
7 -31 29 l-4 27 -2 -27z"/>
<path d="M2408 203 c18 -2 45 -2 60 0 15 2 0 4 -33 4 -33 0 -45 -2 -27 -4z"/>
<path d="M723 140 c0 -30 1 -47 4 -37 4 16 20 18 198 17 172 -1 194 -3 198
-18 3 -9 4 8 4 38 0 31 -2 41 -4 23 l-4 -33 -194 0 -194 0 -4 33 c-2 18 -4 8
-4 -23z"/>
<path d="M2830 160 l0 -30 -172 -3 -173 -3 172 -2 c154 -2 172 -4 176 -19 3
-10 5 6 6 35 0 28 -1 52 -4 52 -3 0 -5 -13 -5 -30z"/>
<path d="M1951 169 c0 -9 -4 -31 -7 -48 -4 -20 -3 -31 5 -31 6 0 11 6 11 14 0
10 14 16 43 19 l42 4 -42 1 c-37 2 -42 5 -46 30 -2 15 -5 20 -6 11z"/>
<path d="M2360 156 c0 -23 -4 -25 -57 -29 l-58 -3 58 -2 c43 -2 57 -6 57 -17
0 -8 5 -15 10 -15 6 0 10 18 10 39 0 22 -4 43 -10 46 -6 3 -10 -5 -10 -19z"/>
<path d="M371 136 c-17 -20 -12 -26 28 -31 27 -4 31 -1 31 20 0 29 -15 33 -25
8 -7 -17 -8 -17 -14 0 -6 17 -8 18 -20 3z"/>
<path d="M440 138 c0 -7 4 -19 9 -27 11 -17 25 3 17 24 -7 18 -26 20 -26 3z"/>
<path d="M493 125 c-6 -14 -7 -23 -3 -20 5 3 11 1 15 -5 10 -16 25 -1 25 26 0
31 -22 31 -37 -1z"/>
<path d="M2100 135 c-16 -19 -6 -32 25 -32 13 0 22 4 19 9 -4 6 4 5 16 -2 25
-13 43 1 33 27 -6 16 -19 17 -29 2 -4 -8 -9 -7 -15 2 -6 11 -9 10 -15 -4 -3
-9 -10 -14 -15 -11 -5 3 -7 10 -4 15 9 14 -1 11 -15 -6z"/>
</g>
</svg>
